<svg width="22" height="22" viewBox="0 0 22 22" fill="none" xmlns="http://www.w3.org/2000/svg">
<g clip-path="url(#clip0_7005_5999)">
<path d="M11.6696 13.186H10.4809L9.04407 12.2885L8.36719 13.3225L9.27834 21.663L9.62196 22.0001H12.3779L12.6794 21.7589L13.6367 13.1491L12.7628 12.0928L11.6696 13.186Z" fill="#EEE1DD"/>
<path d="M12.7459 12.0722L12.8417 11.7564C12.795 11.7005 12.7671 11.6294 12.7669 11.5531L12.7665 10.4765L12.5956 10.2939H9.40373L9.2313 10.5245V11.5511C9.2313 11.6426 9.20045 11.7075 9.15735 11.7555L9.23414 11.9981L9.04413 12.2884L10.481 13.1859H11.6696L12.7629 12.0927L12.7459 12.0722Z" fill="#FED1A3"/>
<path d="M10.9429 10.2939H9.40373L9.2313 10.5245V11.5511C9.2313 11.6426 9.20045 11.7075 9.15735 11.7555L9.23414 11.9981L9.04413 12.2884L10.481 13.1859H10.9429V10.2939H10.9429Z" fill="#FFBC85"/>
<path d="M17.4359 13.5792C17.3147 13.5323 15.979 13.015 14.7985 12.5579L14.5091 12.8826L13.3729 21.5669L13.7031 22H18.5881C18.9061 22 19.164 21.7421 19.164 21.4241C19.164 20.9483 19.164 16.8198 19.164 16.2596C19.1639 15.037 18.3811 13.9683 17.4359 13.5792Z" fill="#7B6C79"/>
<path d="M8.59226 21.3457L7.36756 12.7728L7.18782 12.5547L4.56419 13.5794C3.82539 13.8835 2.83612 14.8401 2.83612 16.2598V21.4243C2.83612 21.7423 3.09393 22.0001 3.41199 22.0001H8.31249L8.59226 21.3457Z" fill="#7B6C79"/>
<path d="M4.17106 21.4242C4.17106 20.9574 4.17106 16.1013 4.17106 15.5748C4.17106 14.5701 4.66661 13.7977 5.21816 13.324L4.56413 13.5794C3.82533 13.8835 2.83606 14.8402 2.83606 16.2598V21.4243C2.83606 21.7423 3.09387 22.0002 3.41193 22.0002H4.74692C4.42887 22.0001 4.17106 21.7422 4.17106 21.4242Z" fill="#665E68"/>
<path d="M11.6038 14.5613L11.4769 14.4548H10.444L10.3963 14.5613L9.62201 22H12.378L11.6038 14.5613Z" fill="#F27182"/>
<path d="M11.6038 14.5613L11.4769 14.4548H10.444L10.3963 14.5613L9.62201 22H10.8543L11.6161 14.6804L11.6038 14.5613Z" fill="#ED5469"/>
<path d="M16.8308 22V15.9206C16.8308 15.7373 16.6821 15.5886 16.4988 15.5886C16.3154 15.5886 16.1668 15.7373 16.1668 15.9206V22H16.8308Z" fill="#665E68"/>
<path d="M5.8332 22V15.9206C5.8332 15.7373 5.68458 15.5886 5.50123 15.5886C5.31788 15.5886 5.16925 15.7373 5.16925 15.9206V22H5.8332Z" fill="#665E68"/>
<path d="M11.7001 12.9185L11.6183 12.8831C11.1889 12.8831 10.8111 12.8831 10.3817 12.8831L10.2946 12.9295L9.883 13.6267V13.7587L10.3963 14.5613H11.6038L12.117 13.7587L12.1538 13.6378L11.7001 12.9185Z" fill="#F27182"/>
<path d="M10.2706 12.6786L9.15731 11.7554C9.13841 11.7764 9.11735 11.7945 9.09514 11.8096L8.42324 12.0721L8.36725 12.1419L8.50007 13.256L8.57088 13.2945L9.34616 13.9374C9.48903 14.0559 9.70302 14.0253 9.80687 13.8714L10.3304 13.096C10.4208 12.9622 10.3949 12.7816 10.2706 12.6786Z" fill="#FFF5F5"/>
<path d="M13.5753 12.0842C13.2448 11.9562 13.0169 11.8679 12.971 11.8502C12.9194 11.8302 12.8756 11.7972 12.8416 11.7563L11.7294 12.6786C11.6051 12.7817 11.5792 12.9623 11.6696 13.0961L12.1931 13.8715C12.297 14.0254 12.5109 14.056 12.6538 13.9375L13.4291 13.2946L13.5066 13.2118L13.6366 12.1743L13.5753 12.0842Z" fill="#FFF5F5"/>
<path d="M15.0905 16.4557C15.1091 16.3814 15.0913 16.3028 15.0426 16.2438L14.6077 15.7173C14.5237 15.6156 14.5371 15.4652 14.6378 15.38L15.207 14.8984C15.2759 14.8401 15.3064 14.748 15.286 14.6601L14.7985 12.558C14.3409 12.3807 13.9065 12.2125 13.5753 12.0842L12.378 22.0001H13.7031L15.0905 16.4557Z" fill="#938493"/>
<path d="M8.4232 12.072L7.18776 12.5545L6.71394 14.6599C6.69353 14.7479 6.72404 14.8399 6.79301 14.8983L7.36213 15.3798C7.46285 15.465 7.47629 15.6154 7.39225 15.7172L6.9574 16.2436C6.90868 16.3026 6.89085 16.3813 6.90945 16.4556L8.31242 21.9999H9.62202L8.4232 12.072Z" fill="#938493"/>
<path d="M15.034 2.8494C14.9731 2.82392 14.926 2.77042 14.9057 2.70305C14.7934 2.33162 14.3541 0.811347 13.3273 0.618589C12.5072 0.464632 11.7358 0.207765 11.3197 0.0565576C11.1123 -0.0188525 10.8878 -0.0188525 10.6804 0.0565576C10.2644 0.207765 9.4929 0.464632 8.6728 0.618589C7.64601 0.811347 7.20679 2.33162 7.09447 2.70305C7.0741 2.77046 7.02701 2.82387 6.96612 2.8494C6.72 2.95252 6.54803 3.19504 6.54803 3.48074V6.12525L6.74792 6.3153H15.3023L15.4522 6.12525V3.48074C15.4521 3.19504 15.2801 2.95252 15.034 2.8494Z" fill="#BD7B62"/>
<path d="M8.38957 3.48074C8.38957 3.19508 8.56153 2.95257 8.80766 2.8494C8.86854 2.82387 8.91564 2.77046 8.936 2.70305C9.04832 2.33162 9.48755 0.811347 10.5143 0.618589C11.0272 0.522296 11.521 0.385784 11.9208 0.260015C11.6813 0.18469 11.4755 0.11319 11.3197 0.0565576C11.1122 -0.0188525 10.8878 -0.0188525 10.6804 0.0565576C10.2643 0.207765 9.49284 0.464632 8.67273 0.618589C7.64595 0.811347 7.20673 2.33162 7.09441 2.70305C7.07404 2.77046 7.02695 2.82387 6.96606 2.8494C6.71993 2.95252 6.54797 3.19504 6.54797 3.48074V6.12525L6.74786 6.3153H8.58946L8.38957 6.12525V3.48074Z" fill="#AD6A50"/>
<path d="M14.4433 5.67285C14.3589 5.67285 14.2767 5.68119 14.1967 5.69588L13.9927 5.81349V8.01942L14.1739 8.21342C14.261 8.23095 14.3509 8.24084 14.4433 8.24084C15.1749 8.24084 15.7679 7.66596 15.7679 6.95684C15.7679 6.24769 15.1749 5.67285 14.4433 5.67285Z" fill="#FED1A3"/>
<path d="M14.9072 5.75398C14.7628 5.70164 14.6066 5.67285 14.4433 5.67285C14.3589 5.67285 14.2767 5.68119 14.1967 5.69588L13.9927 5.81349V8.01942L14.1739 8.21342C14.261 8.23095 14.3509 8.24084 14.4433 8.24084C14.6066 8.24084 14.7628 8.21205 14.9072 8.15971V5.75398Z" fill="#FFBC85"/>
<path d="M7.55667 5.67285C6.82513 5.67285 6.23212 6.24769 6.23212 6.95684C6.23212 7.66596 6.82513 8.24084 7.55667 8.24084C7.64815 8.24084 7.73718 8.23108 7.82346 8.21394L7.97991 8.15958V5.93152L7.80327 5.69588C7.7233 5.68114 7.64102 5.67285 7.55667 5.67285Z" fill="#FED1A3"/>
<path d="M7.14658 6.95684C7.14658 6.4517 7.44766 6.01488 7.88525 5.80528L7.80327 5.69588C7.7233 5.68119 7.64102 5.67285 7.55667 5.67285C6.82513 5.67285 6.23212 6.24769 6.23212 6.95684C6.23212 7.66596 6.82513 8.24084 7.55667 8.24084C7.64815 8.24084 7.73718 8.23108 7.82346 8.21394L7.97991 8.15958V8.14923C7.49166 7.96004 7.14658 7.49765 7.14658 6.95684Z" fill="#FFBC85"/>
<path d="M12.7676 3.94483C12.2698 4.21966 11.7089 4.35948 11.1404 4.35948C10.8146 4.35948 10.4124 4.37637 9.89894 4.22164C9.83406 4.35218 9.7962 4.50037 9.7962 4.66146V7.88292C9.7962 9.18723 10.5753 10.4042 11.8429 10.9111C13.1934 10.5505 14.1967 9.30016 14.1967 7.8415V4.76764C14.1967 4.06682 13.4483 3.56726 12.7676 3.94483Z" fill="#FFE5C1"/>
<path d="M9.88297 7.86465V4.76738C9.88297 4.57582 9.93793 4.40274 10.03 4.25794C9.78242 4.19469 9.50785 4.09264 9.20162 3.92773C8.56967 3.58711 7.80328 4.0495 7.80328 4.76738V7.86465C7.80328 9.51031 9.09179 11.0135 11.0412 11.0158C11.3927 11.0162 11.7309 10.9565 12.0473 10.8481C10.7127 10.4126 9.88297 9.18487 9.88297 7.86465Z" fill="#FED1A3"/>
</g>
<defs>
<clipPath id="clip0_7005_5999">
<rect width="22" height="22" fill="white"/>
</clipPath>
</defs>
</svg>
