<svg width="46" height="46" viewBox="0 0 46 46" fill="none" xmlns="http://www.w3.org/2000/svg">
<g clip-path="url(#clip0_6885_4069)">
<path d="M37.375 46H8.625C3.86113 46 0 42.1389 0 37.375V8.625C0 3.86113 3.86113 0 8.625 0H37.375C42.1389 0 46 3.86113 46 8.625V37.375C46 42.1389 42.1389 46 37.375 46Z" fill="#F2F3F8"/>
<g clip-path="url(#clip1_6885_4069)">
<path d="M32.045 20.2402C26.755 14.9502 18.245 14.9502 12.955 20.2402C12.495 20.7002 11.805 20.7002 11.345 20.2402C10.885 19.7802 10.885 19.0902 11.345 18.6302C17.555 12.4202 27.56 12.4202 33.655 18.6302C34.115 19.0902 34.115 19.7802 33.655 20.2402C33.195 20.7002 32.505 20.7002 32.045 20.2402Z" fill="#3D4449"/>
<path d="M28.71 23.4603C25.26 20.1253 19.74 20.1253 16.405 23.4603C15.945 23.9203 15.255 23.9203 14.795 23.4603C14.335 23.0003 14.335 22.3103 14.795 21.8503C19.05 17.4803 26.065 17.4803 30.32 21.8503C30.78 22.3103 30.78 23.0003 30.32 23.4603C29.86 23.9203 29.17 23.9203 28.71 23.4603Z" fill="#3D4449"/>
<path d="M25.4899 26.9099C23.8799 25.2999 21.3499 25.2999 19.8549 26.9099C19.3949 27.3699 18.7049 27.3699 18.2449 26.9099C17.7849 26.4499 17.7849 25.6449 18.2449 25.1849C20.6599 22.5399 24.6849 22.5399 27.0999 25.1849C27.5599 25.6449 27.5599 26.4499 27.0999 26.9099C26.6399 27.3699 25.9499 27.3699 25.4899 26.9099Z" fill="#3D4449"/>
<path d="M22.6149 32.0853C23.8217 32.0853 24.7999 31.1071 24.7999 29.9003C24.7999 28.6936 23.8217 27.7153 22.6149 27.7153C21.4082 27.7153 20.4299 28.6936 20.4299 29.9003C20.4299 31.1071 21.4082 32.0853 22.6149 32.0853Z" fill="#3D4449"/>
</g>
</g>
<defs>
<clipPath id="clip0_6885_4069">
<rect width="46" height="46" rx="23" fill="white"/>
</clipPath>
<clipPath id="clip1_6885_4069">
<rect width="23" height="23" fill="white" transform="translate(11 11.5)"/>
</clipPath>
</defs>
</svg>
