<svg width="46" height="46" viewBox="0 0 46 46" fill="none" xmlns="http://www.w3.org/2000/svg">
<g clip-path="url(#clip0_6812_16509)">
<path d="M37.375 46H8.625C3.86113 46 0 42.1389 0 37.375V8.625C0 3.86113 3.86113 0 8.625 0H37.375C42.1389 0 46 3.86113 46 8.625V37.375C46 42.1389 42.1389 46 37.375 46Z" fill="#F2F3F8"/>
<g clip-path="url(#clip1_6812_16509)">
<path d="M32.85 12.15H29.4V11H15.6V12.15H12.15C11.46 12.15 11 12.61 11 13.3V16.06C11 18.705 12.955 20.89 15.6 21.235V21.35C15.6 24.685 17.9 27.445 21.005 28.135L20.2 30.55H17.555C17.095 30.55 16.635 30.895 16.52 31.355L15.6 34H29.4L28.48 31.355C28.365 30.895 27.905 30.55 27.445 30.55H24.8L23.995 28.135C27.1 27.445 29.4 24.685 29.4 21.35V21.235C32.045 20.89 34 18.705 34 16.06V13.3C34 12.61 33.54 12.15 32.85 12.15ZM15.6 18.935C14.335 18.59 13.3 17.44 13.3 16.06V14.45H15.6V18.935ZM24.8 22.5L22.5 21.235L20.2 22.5L20.775 20.2L19.05 17.9H21.465L22.5 15.6L23.535 17.9H25.95L24.225 20.2L24.8 22.5ZM31.7 16.06C31.7 17.44 30.665 18.705 29.4 18.935V14.45H31.7V16.06Z" fill="#3D4449"/>
</g>
</g>
<defs>
<clipPath id="clip0_6812_16509">
<rect width="46" height="46" rx="23" fill="white"/>
</clipPath>
<clipPath id="clip1_6812_16509">
<rect width="23" height="23" fill="white" transform="translate(11 11)"/>
</clipPath>
</defs>
</svg>
