<svg width="60" height="60" viewBox="0 0 60 60" fill="none" xmlns="http://www.w3.org/2000/svg">
<path d="M58.6154 31.2231H1.38464C0.70387 31.2231 0.15387 30.6731 0.15387 29.9923C0.15387 29.3116 0.70387 28.7616 1.38464 28.7616H55.6423L48.1731 21.2923C47.6923 20.8116 47.6923 20.0308 48.1731 19.55C48.6539 19.0693 49.4346 19.0693 49.9154 19.55L59.4885 29.1231C59.8423 29.477 59.9462 30.0039 59.7539 30.4654C59.5616 30.9231 59.1116 31.2231 58.6154 31.2231Z" fill="#8FC859"/>
<path d="M49.0308 40.8078C48.7154 40.8078 48.4 40.6886 48.1615 40.4463C47.6808 39.9655 47.6808 39.1848 48.1615 38.704L57.7462 29.1194C58.2269 28.6386 59.0077 28.6386 59.4885 29.1194C59.9692 29.6001 59.9692 30.3809 59.4885 30.8617L49.9039 40.4463C49.6615 40.6886 49.3462 40.8078 49.0308 40.8078Z" fill="#8FC859"/>
</svg>
