<svg width="60" height="60" viewBox="0 0 60 60" fill="none" xmlns="http://www.w3.org/2000/svg">
<path d="M1.38459 31.2231H58.6154C59.2961 31.2231 59.8461 30.6731 59.8461 29.9923C59.8461 29.3116 59.2961 28.7616 58.6154 28.7616H4.35767L11.8269 21.2923C12.3077 20.8116 12.3077 20.0308 11.8269 19.55C11.3461 19.0693 10.5654 19.0693 10.0846 19.55L0.511513 29.1231C0.157669 29.477 0.0538216 30.0039 0.246128 30.4654C0.438438 30.9231 0.888435 31.2231 1.38459 31.2231Z" fill="#8FC859"/>
<path d="M10.9692 40.8078C11.2846 40.8078 11.6 40.6886 11.8385 40.4463C12.3192 39.9655 12.3192 39.1848 11.8385 38.704L2.25384 29.1194C1.77307 28.6386 0.992306 28.6386 0.511537 29.1194C0.0307674 29.6001 0.0307674 30.3809 0.511537 30.8617L10.0961 40.4463C10.3385 40.6886 10.6538 40.8078 10.9692 40.8078Z" fill="#8FC859"/>
</svg>
