<svg width="22" height="22" viewBox="0 0 22 22" fill="none" xmlns="http://www.w3.org/2000/svg">
<g clip-path="url(#clip0_6885_6462)">
<path d="M19.4409 8.99453V21.8623H2.5592V8.99453L11.0476 0.760254L19.4409 8.99453Z" fill="#E9EAEF"/>
<path d="M19.5306 2.69288V8.47038L16.6572 5.73382L15.3102 4.45108V2.69288C15.3102 2.3512 15.5872 2.07422 15.9289 2.07422H18.912C19.2537 2.07418 19.5306 2.3512 19.5306 2.69288Z" fill="#9EB1B7"/>
<path d="M16.6571 2.07422V5.73387L15.3102 4.45112V2.69293C15.3102 2.35124 15.5872 2.07426 15.9288 2.07426L16.6571 2.07422Z" fill="#879BA0"/>
<path d="M22 19.8803V21.8621H11.8082V19.8803C11.8082 19.4857 12.1283 19.166 12.523 19.166H21.2852C21.6799 19.166 22 19.4857 22 19.8803Z" fill="#9CCE21"/>
<path d="M3.57255 19.8803V21.8621H0V19.8803C0 19.4857 0.319688 19.166 0.714313 19.166H2.85772C3.25286 19.166 3.57255 19.4857 3.57255 19.8803Z" fill="#9CCE21"/>
<path d="M22 20.5537V21.862H11.8082V20.5537C11.8082 20.159 12.1283 19.8394 12.523 19.8394H21.2852C21.6799 19.8393 22 20.159 22 20.5537Z" fill="#85C10D"/>
<path d="M3.57255 20.5537V21.862H0V20.5537C0 20.159 0.319688 19.8394 0.714313 19.8394H2.85772C3.25286 19.8393 3.57255 20.159 3.57255 20.5537Z" fill="#85C10D"/>
<path d="M19.4409 9.49937V11.9045L11 3.84537L2.5592 11.9045V9.49937L10.3297 2.09886L11 1.47607L11.6699 2.09886L19.4409 9.49937Z" fill="#D2D4D8"/>
<path d="M10.9999 2.50704L1.38942 11.6825L0.0456543 10.5544L10.3298 0.760184L10.9999 0.137695L11.6699 0.760184L21.9541 10.5544L20.6103 11.6825L10.9999 2.50704Z" fill="#EA4756"/>
<path d="M10.1918 12.2212H4.62451V21.8621H10.1918V12.2212Z" fill="#C97523"/>
<path d="M18.1482 12.2212H11.8082V17.7885H18.1482V12.2212Z" fill="#A0D9F2"/>
<path d="M18.1482 12.2212H11.8082V13.913H18.1482V12.2212Z" fill="#C97523"/>
<path d="M9.09485 17.3478H8.2867C8.10069 17.3478 7.94995 17.197 7.94995 17.0111C7.94995 16.8251 8.10069 16.6743 8.2867 16.6743H9.09485C9.28086 16.6743 9.4316 16.8251 9.4316 17.0111C9.4316 17.197 9.28086 17.3478 9.09485 17.3478Z" fill="#8E480E"/>
<path d="M10.9999 9.46839C11.8554 9.46839 12.5488 8.77493 12.5488 7.9195C12.5488 7.06407 11.8554 6.37061 10.9999 6.37061C10.1445 6.37061 9.45105 7.06407 9.45105 7.9195C9.45105 8.77493 10.1445 9.46839 10.9999 9.46839Z" fill="#413740"/>
<path d="M10.1918 11.8848H4.62447C4.43845 11.8848 4.28772 12.0355 4.28772 12.2215V21.8625H4.96117V12.5582H9.85505V21.8624H10.5285V12.2215C10.5286 12.0355 10.3779 11.8848 10.1918 11.8848Z" fill="#8E480E"/>
<path d="M18.148 11.8848H11.8082C11.6222 11.8848 11.4714 12.0355 11.4714 12.2215V17.7888C11.4714 17.9748 11.6222 18.1256 11.8082 18.1256H18.148C18.3341 18.1256 18.4848 17.9748 18.4848 17.7888V12.2215C18.4848 12.0355 18.3341 11.8848 18.148 11.8848ZM17.8113 12.5582V13.5765H12.1449V12.5582H17.8113ZM12.1449 17.4521V14.25H17.8113V17.4521H12.1449Z" fill="#8E480E"/>
<path d="M11 9.80502C9.96026 9.80502 9.11438 8.95913 9.11438 7.91937C9.11438 6.87962 9.96026 6.03369 11 6.03369C12.0398 6.03369 12.8857 6.87957 12.8857 7.91937C12.8857 8.95909 12.0398 9.80502 11 9.80502ZM11 6.70718C10.3316 6.70718 9.78787 7.25095 9.78787 7.91937C9.78787 8.58775 10.3316 9.13152 11 9.13152C11.6684 9.13152 12.2122 8.58775 12.2122 7.91937C12.2122 7.25095 11.6684 6.70718 11 6.70718Z" fill="#EA4756"/>
</g>
<defs>
<clipPath id="clip0_6885_6462">
<rect width="22" height="22" fill="white"/>
</clipPath>
</defs>
</svg>
