<svg width="22" height="22" viewBox="0 0 22 22" fill="none" xmlns="http://www.w3.org/2000/svg">
<path d="M19.4296 1.16553H12.5906C12.4701 1.16553 12.3715 1.26405 12.3715 1.38454V4.10575H12.4285C12.549 4.10575 12.6477 4.20432 12.6477 4.32476V5.58413H13.0816C13.2022 5.58413 13.3007 5.6827 13.3007 5.80319V6.88948H13.828C13.9486 6.88948 14.0472 6.98805 14.0472 7.10849V20.8109H14.691C14.8116 20.8109 14.9102 20.9094 14.9102 21.0299V21.6779H19.4297C19.5502 21.6779 19.6489 21.5794 19.6489 21.4589V1.38458C19.6488 1.2641 19.5502 1.16553 19.4296 1.16553Z" fill="#FB8276"/>
<path opacity="0.1" d="M12.4285 4.10575C12.549 4.10575 12.6477 4.20432 12.6477 4.32476V5.58413H13.0816C13.2021 5.58413 13.3007 5.6827 13.3007 5.80319V6.88948H13.5559V1.38454C13.5559 1.26405 13.6545 1.16553 13.7751 1.16553H12.5906C12.4701 1.16553 12.3715 1.26405 12.3715 1.38454V4.10575H12.4285Z" fill="black"/>
<path d="M17.9607 2.68213H18.7059C18.8838 2.68213 19.0281 2.53788 19.0281 2.35986C19.0281 2.18189 18.8838 2.0376 18.7059 2.0376H17.9607C17.7827 2.0376 17.6384 2.18189 17.6384 2.35986C17.6384 2.53784 17.7827 2.68213 17.9607 2.68213Z" fill="#EF5050"/>
<path d="M14.0595 2.0376H13.3143C13.1364 2.0376 12.9921 2.18189 12.9921 2.35986C12.9921 2.53788 13.1364 2.68213 13.3143 2.68213H14.0595C14.2375 2.68213 14.3818 2.53788 14.3818 2.35986C14.3818 2.18189 14.2375 2.0376 14.0595 2.0376Z" fill="#EF5050"/>
<path d="M18.7059 3.04492H17.9607C17.7827 3.04492 17.6384 3.18921 17.6384 3.36719C17.6384 3.54516 17.7827 3.68945 17.9607 3.68945H18.7059C18.8838 3.68945 19.0281 3.54516 19.0281 3.36719C19.0281 3.18921 18.8838 3.04492 18.7059 3.04492Z" fill="#EF5050"/>
<path d="M14.0595 3.04492H13.3143C13.1364 3.04492 12.9921 3.18921 12.9921 3.36719C12.9921 3.54516 13.1364 3.68945 13.3143 3.68945H14.0595C14.2375 3.68945 14.3818 3.54516 14.3818 3.36719C14.3818 3.18921 14.2375 3.04492 14.0595 3.04492Z" fill="#EF5050"/>
<path d="M18.7059 4.05273H17.9607C17.7827 4.05273 17.6384 4.19702 17.6384 4.375C17.6384 4.55298 17.7827 4.69727 17.9607 4.69727H18.7059C18.8838 4.69727 19.0281 4.55298 19.0281 4.375C19.0281 4.19702 18.8838 4.05273 18.7059 4.05273Z" fill="#EF5050"/>
<path d="M14.0595 4.05273H13.3143C13.1364 4.05273 12.9921 4.19702 12.9921 4.375C12.9921 4.55298 13.1364 4.69727 13.3143 4.69727H14.0595C14.2375 4.69727 14.3818 4.55298 14.3818 4.375C14.3818 4.19702 14.2375 4.05273 14.0595 4.05273Z" fill="#EF5050"/>
<path d="M18.7059 5.06006H17.9607C17.7827 5.06006 17.6384 5.20435 17.6384 5.38232C17.6384 5.56034 17.7827 5.70459 17.9607 5.70459H18.7059C18.8838 5.70459 19.0281 5.56034 19.0281 5.38232C19.0281 5.20435 18.8838 5.06006 18.7059 5.06006Z" fill="#EF5050"/>
<path d="M14.0595 5.06006H13.3143C13.1364 5.06006 12.9921 5.20435 12.9921 5.38232C12.9921 5.56034 13.1364 5.70459 13.3143 5.70459H14.0595C14.2375 5.70459 14.3818 5.56034 14.3818 5.38232C14.3818 5.20435 14.2375 5.06006 14.0595 5.06006Z" fill="#EF5050"/>
<path d="M18.7059 6.06787H17.9607C17.7827 6.06787 17.6384 6.21216 17.6384 6.39014C17.6384 6.56811 17.7827 6.7124 17.9607 6.7124H18.7059C18.8838 6.7124 19.0281 6.56811 19.0281 6.39014C19.0281 6.21216 18.8838 6.06787 18.7059 6.06787Z" fill="#EF5050"/>
<path d="M14.0595 6.06787H13.3143C13.1364 6.06787 12.9921 6.21216 12.9921 6.39014C12.9921 6.56811 13.1364 6.7124 13.3143 6.7124H14.0595C14.2375 6.7124 14.3818 6.56811 14.3818 6.39014C14.3818 6.21216 14.2375 6.06787 14.0595 6.06787Z" fill="#EF5050"/>
<path d="M18.7059 7.0752H17.9607C17.7827 7.0752 17.6384 7.21948 17.6384 7.39746C17.6384 7.57544 17.7827 7.71973 17.9607 7.71973H18.7059C18.8838 7.71973 19.0281 7.57544 19.0281 7.39746C19.0281 7.21948 18.8838 7.0752 18.7059 7.0752Z" fill="#EF5050"/>
<path d="M14.0471 7.1085V7.71973H14.0595C14.2374 7.71973 14.3817 7.57544 14.3817 7.39746C14.3817 7.21948 14.2374 7.0752 14.0595 7.0752H14.0437C14.0454 7.08611 14.0471 7.09711 14.0471 7.1085Z" fill="#EF5050"/>
<path d="M18.7059 8.08252H17.9607C17.7827 8.08252 17.6384 8.22681 17.6384 8.40479C17.6384 8.58276 17.7827 8.72705 17.9607 8.72705H18.7059C18.8838 8.72705 19.0281 8.58276 19.0281 8.40479C19.0281 8.22681 18.8838 8.08252 18.7059 8.08252Z" fill="#EF5050"/>
<path d="M14.0471 8.72705H14.0595C14.2375 8.72705 14.3818 8.58276 14.3818 8.40479C14.3818 8.22681 14.2375 8.08252 14.0595 8.08252H14.0471V8.72705Z" fill="#EF5050"/>
<path d="M18.7059 9.09033H17.9607C17.7827 9.09033 17.6384 9.23462 17.6384 9.4126C17.6384 9.59057 17.7827 9.73486 17.9607 9.73486H18.7059C18.8838 9.73486 19.0281 9.59057 19.0281 9.4126C19.0281 9.23462 18.8838 9.09033 18.7059 9.09033Z" fill="#EF5050"/>
<path d="M14.0471 9.73486H14.0595C14.2375 9.73486 14.3818 9.59057 14.3818 9.4126C14.3818 9.23462 14.2375 9.09033 14.0595 9.09033H14.0471V9.73486Z" fill="#EF5050"/>
<path d="M18.7059 10.0977H17.9607C17.7827 10.0977 17.6384 10.2419 17.6384 10.4199C17.6384 10.5979 17.7827 10.7422 17.9607 10.7422H18.7059C18.8838 10.7422 19.0281 10.5979 19.0281 10.4199C19.0281 10.2419 18.8838 10.0977 18.7059 10.0977Z" fill="#EF5050"/>
<path d="M14.0471 10.7422H14.0595C14.2375 10.7422 14.3818 10.5979 14.3818 10.4199C14.3818 10.2419 14.2375 10.0977 14.0595 10.0977H14.0471V10.7422Z" fill="#EF5050"/>
<path d="M18.7059 11.1055H17.9607C17.7827 11.1055 17.6384 11.2498 17.6384 11.4277C17.6384 11.6057 17.7827 11.75 17.9607 11.75H18.7059C18.8838 11.75 19.0281 11.6057 19.0281 11.4277C19.0281 11.2498 18.8838 11.1055 18.7059 11.1055Z" fill="#EF5050"/>
<path d="M14.0471 11.75H14.0595C14.2375 11.75 14.3818 11.6057 14.3818 11.4277C14.3818 11.2498 14.2375 11.1055 14.0595 11.1055H14.0471V11.75Z" fill="#EF5050"/>
<path d="M18.7059 12.1128H17.9607C17.7827 12.1128 17.6384 12.2571 17.6384 12.4351C17.6384 12.613 17.7827 12.7573 17.9607 12.7573H18.7059C18.8838 12.7573 19.0281 12.613 19.0281 12.4351C19.0281 12.2571 18.8838 12.1128 18.7059 12.1128Z" fill="#EF5050"/>
<path d="M14.0471 12.7573H14.0595C14.2375 12.7573 14.3818 12.613 14.3818 12.4351C14.3818 12.2571 14.2375 12.1128 14.0595 12.1128H14.0471V12.7573Z" fill="#EF5050"/>
<path d="M18.7059 13.1201H17.9607C17.7827 13.1201 17.6384 13.2644 17.6384 13.4424C17.6384 13.6204 17.7827 13.7646 17.9607 13.7646H18.7059C18.8838 13.7646 19.0281 13.6204 19.0281 13.4424C19.0281 13.2644 18.8838 13.1201 18.7059 13.1201Z" fill="#EF5050"/>
<path d="M14.0471 13.7646H14.0595C14.2375 13.7646 14.3818 13.6204 14.3818 13.4424C14.3818 13.2644 14.2375 13.1201 14.0595 13.1201H14.0471V13.7646Z" fill="#EF5050"/>
<path d="M18.7059 14.1279H17.9607C17.7827 14.1279 17.6384 14.2722 17.6384 14.4502C17.6384 14.6282 17.7827 14.7725 17.9607 14.7725H18.7059C18.8838 14.7725 19.0281 14.6282 19.0281 14.4502C19.0281 14.2722 18.8838 14.1279 18.7059 14.1279Z" fill="#EF5050"/>
<path d="M14.0471 14.7725H14.0595C14.2375 14.7725 14.3818 14.6282 14.3818 14.4502C14.3818 14.2722 14.2375 14.1279 14.0595 14.1279H14.0471V14.7725Z" fill="#EF5050"/>
<path d="M18.7059 15.1353H17.9607C17.7827 15.1353 17.6384 15.2795 17.6384 15.4575C17.6384 15.6355 17.7827 15.7798 17.9607 15.7798H18.7059C18.8838 15.7798 19.0281 15.6355 19.0281 15.4575C19.0281 15.2795 18.8838 15.1353 18.7059 15.1353Z" fill="#EF5050"/>
<path d="M14.0471 15.7798H14.0595C14.2375 15.7798 14.3818 15.6355 14.3818 15.4575C14.3818 15.2795 14.2375 15.1353 14.0595 15.1353H14.0471V15.7798Z" fill="#EF5050"/>
<path d="M18.7059 16.1426H17.9607C17.7827 16.1426 17.6384 16.2869 17.6384 16.4648C17.6384 16.6428 17.7827 16.7871 17.9607 16.7871H18.7059C18.8838 16.7871 19.0281 16.6428 19.0281 16.4648C19.0281 16.2869 18.8838 16.1426 18.7059 16.1426Z" fill="#EF5050"/>
<path d="M14.0471 16.7871H14.0595C14.2375 16.7871 14.3818 16.6428 14.3818 16.4648C14.3818 16.2869 14.2375 16.1426 14.0595 16.1426H14.0471V16.7871Z" fill="#EF5050"/>
<path d="M18.7059 17.1504H17.9607C17.7827 17.1504 17.6384 17.2947 17.6384 17.4727C17.6384 17.6506 17.7827 17.7949 17.9607 17.7949H18.7059C18.8838 17.7949 19.0281 17.6506 19.0281 17.4727C19.0281 17.2947 18.8838 17.1504 18.7059 17.1504Z" fill="#EF5050"/>
<path d="M14.0471 17.7949H14.0595C14.2375 17.7949 14.3818 17.6506 14.3818 17.4727C14.3818 17.2947 14.2375 17.1504 14.0595 17.1504H14.0471V17.7949Z" fill="#EF5050"/>
<path d="M18.7059 18.1577H17.9607C17.7827 18.1577 17.6384 18.302 17.6384 18.48C17.6384 18.658 17.7827 18.8022 17.9607 18.8022H18.7059C18.8838 18.8022 19.0281 18.658 19.0281 18.48C19.0281 18.302 18.8838 18.1577 18.7059 18.1577Z" fill="#EF5050"/>
<path d="M14.0471 18.8022H14.0595C14.2375 18.8022 14.3818 18.658 14.3818 18.48C14.3818 18.302 14.2375 18.1577 14.0595 18.1577H14.0471V18.8022Z" fill="#EF5050"/>
<path d="M18.7059 19.1655H17.9607C17.7827 19.1655 17.6384 19.3098 17.6384 19.4878C17.6384 19.6658 17.7827 19.8101 17.9607 19.8101H18.7059C18.8838 19.8101 19.0281 19.6658 19.0281 19.4878C19.0281 19.3098 18.8838 19.1655 18.7059 19.1655Z" fill="#EF5050"/>
<path d="M14.0471 19.8101H14.0595C14.2375 19.8101 14.3818 19.6658 14.3818 19.4878C14.3818 19.3098 14.2375 19.1655 14.0595 19.1655H14.0471V19.8101Z" fill="#EF5050"/>
<path d="M16.9108 2.0376H15.1093C14.9313 2.0376 14.787 2.18189 14.787 2.35986C14.787 2.53788 14.9313 2.68213 15.1093 2.68213H16.9108C17.0888 2.68213 17.2331 2.53788 17.2331 2.35986C17.2331 2.18189 17.0888 2.0376 16.9108 2.0376Z" fill="#EF5050"/>
<path d="M16.9108 3.04492H15.1093C14.9313 3.04492 14.787 3.18921 14.787 3.36719C14.787 3.54516 14.9313 3.68945 15.1093 3.68945H16.9108C17.0888 3.68945 17.2331 3.54516 17.2331 3.36719C17.2331 3.18921 17.0888 3.04492 16.9108 3.04492Z" fill="#EF5050"/>
<path d="M16.9108 4.05273H15.1093C14.9313 4.05273 14.787 4.19702 14.787 4.375C14.787 4.55298 14.9313 4.69727 15.1093 4.69727H16.9108C17.0888 4.69727 17.2331 4.55298 17.2331 4.375C17.2331 4.19702 17.0888 4.05273 16.9108 4.05273Z" fill="#EF5050"/>
<path d="M16.9108 5.06006H15.1093C14.9313 5.06006 14.787 5.20435 14.787 5.38232C14.787 5.56034 14.9313 5.70459 15.1093 5.70459H16.9108C17.0888 5.70459 17.2331 5.56034 17.2331 5.38232C17.2331 5.20435 17.0888 5.06006 16.9108 5.06006Z" fill="#EF5050"/>
<path d="M16.9108 6.06787H15.1093C14.9313 6.06787 14.787 6.21216 14.787 6.39014C14.787 6.56811 14.9313 6.7124 15.1093 6.7124H16.9108C17.0888 6.7124 17.2331 6.56811 17.2331 6.39014C17.2331 6.21216 17.0888 6.06787 16.9108 6.06787Z" fill="#EF5050"/>
<path d="M16.9108 7.0752H15.1093C14.9313 7.0752 14.787 7.21948 14.787 7.39746C14.787 7.57544 14.9313 7.71973 15.1093 7.71973H16.9108C17.0888 7.71973 17.2331 7.57544 17.2331 7.39746C17.2331 7.21948 17.0888 7.0752 16.9108 7.0752Z" fill="#EF5050"/>
<path d="M16.9108 8.08252H15.1093C14.9313 8.08252 14.787 8.22681 14.787 8.40479C14.787 8.58276 14.9313 8.72705 15.1093 8.72705H16.9108C17.0888 8.72705 17.2331 8.58276 17.2331 8.40479C17.2331 8.22681 17.0888 8.08252 16.9108 8.08252Z" fill="#EF5050"/>
<path d="M16.9108 9.09033H15.1093C14.9313 9.09033 14.787 9.23462 14.787 9.4126C14.787 9.59057 14.9313 9.73486 15.1093 9.73486H16.9108C17.0888 9.73486 17.2331 9.59057 17.2331 9.4126C17.2331 9.23462 17.0888 9.09033 16.9108 9.09033Z" fill="#EF5050"/>
<path d="M16.9108 10.0977H15.1093C14.9313 10.0977 14.787 10.2419 14.787 10.4199C14.787 10.5979 14.9313 10.7422 15.1093 10.7422H16.9108C17.0888 10.7422 17.2331 10.5979 17.2331 10.4199C17.2331 10.2419 17.0888 10.0977 16.9108 10.0977Z" fill="#EF5050"/>
<path d="M16.9108 11.1055H15.1093C14.9313 11.1055 14.787 11.2498 14.787 11.4277C14.787 11.6057 14.9313 11.75 15.1093 11.75H16.9108C17.0888 11.75 17.2331 11.6057 17.2331 11.4277C17.2331 11.2498 17.0888 11.1055 16.9108 11.1055Z" fill="#EF5050"/>
<path d="M16.9108 12.1128H15.1093C14.9313 12.1128 14.787 12.2571 14.787 12.4351C14.787 12.613 14.9313 12.7573 15.1093 12.7573H16.9108C17.0888 12.7573 17.2331 12.613 17.2331 12.4351C17.2331 12.2571 17.0888 12.1128 16.9108 12.1128Z" fill="#EF5050"/>
<path d="M16.9108 13.1201H15.1093C14.9313 13.1201 14.787 13.2644 14.787 13.4424C14.787 13.6204 14.9313 13.7646 15.1093 13.7646H16.9108C17.0888 13.7646 17.2331 13.6204 17.2331 13.4424C17.2331 13.2644 17.0888 13.1201 16.9108 13.1201Z" fill="#EF5050"/>
<path d="M16.9108 14.1279H15.1093C14.9313 14.1279 14.787 14.2722 14.787 14.4502C14.787 14.6282 14.9313 14.7725 15.1093 14.7725H16.9108C17.0888 14.7725 17.2331 14.6282 17.2331 14.4502C17.2331 14.2722 17.0888 14.1279 16.9108 14.1279Z" fill="#EF5050"/>
<path d="M16.9108 15.1353H15.1093C14.9313 15.1353 14.787 15.2795 14.787 15.4575C14.787 15.6355 14.9313 15.7798 15.1093 15.7798H16.9108C17.0888 15.7798 17.2331 15.6355 17.2331 15.4575C17.2331 15.2795 17.0888 15.1353 16.9108 15.1353Z" fill="#EF5050"/>
<path d="M16.9108 16.1426H15.1093C14.9313 16.1426 14.787 16.2869 14.787 16.4648C14.787 16.6428 14.9313 16.7871 15.1093 16.7871H16.9108C17.0888 16.7871 17.2331 16.6428 17.2331 16.4648C17.2331 16.2869 17.0888 16.1426 16.9108 16.1426Z" fill="#EF5050"/>
<path d="M16.9108 17.1504H15.1093C14.9313 17.1504 14.787 17.2947 14.787 17.4727C14.787 17.6506 14.9313 17.7949 15.1093 17.7949H16.9108C17.0888 17.7949 17.2331 17.6506 17.2331 17.4727C17.2331 17.2947 17.0888 17.1504 16.9108 17.1504Z" fill="#EF5050"/>
<path d="M16.9108 18.1577H15.1093C14.9313 18.1577 14.787 18.302 14.787 18.48C14.787 18.658 14.9313 18.8022 15.1093 18.8022H16.9108C17.0888 18.8022 17.2331 18.658 17.2331 18.48C17.2331 18.302 17.0888 18.1577 16.9108 18.1577Z" fill="#EF5050"/>
<path d="M16.9108 19.1655H15.1093C14.9313 19.1655 14.787 19.3098 14.787 19.4878C14.787 19.6658 14.9313 19.8101 15.1093 19.8101H16.9108C17.0888 19.8101 17.2331 19.6658 17.2331 19.4878C17.2331 19.3098 17.0888 19.1655 16.9108 19.1655Z" fill="#EF5050"/>
<path d="M7.94957 8.39454V7.10832C7.94957 6.98788 8.04818 6.88931 8.16875 6.88931H8.69598V5.80301C8.69598 5.68253 8.79459 5.58396 8.91516 5.58396H9.34906V4.32459C9.34906 4.20904 9.44011 4.1146 9.55389 4.10704V0.12568C9.55389 0.00519601 9.47375 -0.0359251 9.37578 0.0342859L5.44015 2.85579C5.34222 2.926 5.26208 3.08202 5.26208 3.20246V8.3945L7.94957 8.39454Z" fill="#D5E962"/>
<path opacity="0.1" d="M6.4014 8.39454V3.51789C6.4014 3.39745 6.48154 3.24143 6.57946 3.17122L9.55389 1.03885V0.12568C9.55389 0.00519601 9.47375 -0.0359251 9.37578 0.0342859L5.44015 2.85579C5.34222 2.926 5.26208 3.08202 5.26208 3.20246V8.3945L6.4014 8.39454Z" fill="black"/>
<path d="M6.22217 4.34668H8.98368C9.16166 4.34668 9.30595 4.20239 9.30595 4.02441C9.30595 3.84644 9.16166 3.70215 8.98368 3.70215H6.22217C6.04419 3.70215 5.8999 3.84644 5.8999 4.02441C5.8999 4.20239 6.04419 4.34668 6.22217 4.34668Z" fill="#89C947"/>
<path d="M8.98368 4.64404H6.22217C6.04419 4.64404 5.8999 4.78833 5.8999 4.96631C5.8999 5.14429 6.04419 5.28857 6.22217 5.28857H8.98368C9.16166 5.28857 9.30595 5.14429 9.30595 4.96631C9.30595 4.78829 9.16166 4.64404 8.98368 4.64404Z" fill="#89C947"/>
<path d="M6.22217 6.23047H8.69601V5.80332C8.69601 5.6885 8.78586 5.59462 8.89865 5.58594H6.22217C6.04419 5.58594 5.8999 5.73023 5.8999 5.9082C5.8999 6.08618 6.04419 6.23047 6.22217 6.23047Z" fill="#89C947"/>
<path d="M6.22217 7.17232H7.9496V7.10868C7.9496 6.98824 8.04821 6.88967 8.16878 6.88967H8.69601V6.52783H6.22217C6.04419 6.52783 5.8999 6.67212 5.8999 6.8501C5.8999 7.02807 6.04419 7.17232 6.22217 7.17232Z" fill="#89C947"/>
<path d="M6.22217 8.11377H7.9496V7.46924H6.22217C6.04419 7.46924 5.8999 7.61353 5.8999 7.7915C5.8999 7.96948 6.04419 8.11377 6.22217 8.11377Z" fill="#89C947"/>
<path d="M8.80744 21.4587C8.80744 21.5791 8.70883 21.6777 8.58825 21.6777H2.49563C2.37506 21.6777 2.27649 21.5791 2.27649 21.4587V8.37721C2.27649 8.25677 2.3751 8.1582 2.49563 8.1582H8.58825C8.70878 8.1582 8.80744 8.25677 8.80744 8.37721V21.4587Z" fill="#F7931E"/>
<path opacity="0.1" d="M3.154 21.4587V8.37721C3.154 8.25677 3.25261 8.1582 3.37318 8.1582H2.49563C2.37506 8.1582 2.27649 8.25677 2.27649 8.37721V21.4587C2.27649 21.5791 2.3751 21.6777 2.49563 21.6777H3.37314C3.25265 21.6777 3.154 21.5791 3.154 21.4587Z" fill="black"/>
<path d="M3.53601 19.2963C3.35803 19.2963 3.21375 19.152 3.21375 18.974V9.79004C3.21375 9.61206 3.35803 9.46777 3.53601 9.46777C3.71399 9.46777 3.85828 9.61206 3.85828 9.79004V18.974C3.85828 19.152 3.71399 19.2963 3.53601 19.2963Z" fill="#FFC502"/>
<path d="M4.56238 19.2963C4.3844 19.2963 4.24011 19.152 4.24011 18.974V9.79004C4.24011 9.61206 4.3844 9.46777 4.56238 9.46777C4.74035 9.46777 4.88464 9.61206 4.88464 9.79004V18.974C4.88464 19.152 4.74035 19.2963 4.56238 19.2963Z" fill="#FFC502"/>
<path d="M5.58862 19.2963C5.41065 19.2963 5.26636 19.152 5.26636 18.974V9.79004C5.26636 9.61206 5.41065 9.46777 5.58862 9.46777C5.7666 9.46777 5.91089 9.61206 5.91089 9.79004V18.974C5.91089 19.152 5.7666 19.2963 5.58862 19.2963Z" fill="#FFC502"/>
<path d="M6.61487 19.2963C6.43689 19.2963 6.2926 19.152 6.2926 18.974V9.79004C6.2926 9.61206 6.43689 9.46777 6.61487 9.46777C6.79284 9.46777 6.93713 9.61206 6.93713 9.79004V18.974C6.93713 19.152 6.79284 19.2963 6.61487 19.2963Z" fill="#FFC502"/>
<path d="M11.3223 4.12484V0.745605C11.3223 0.567629 11.178 0.42334 11 0.42334C10.822 0.42334 10.6777 0.567629 10.6777 0.745605V4.12484H11.3223Z" fill="#C5CCD3"/>
<path d="M12.866 5.58583V4.08815C12.866 3.96771 12.7674 3.86914 12.6468 3.86914H9.35322C9.23269 3.86914 9.13403 3.96771 9.13403 4.08815V5.58583H12.866Z" fill="#E6E9ED"/>
<path opacity="0.1" d="M10.0356 5.58583V4.08815C10.0356 3.96771 10.1343 3.86914 10.2548 3.86914H9.35322C9.23269 3.86914 9.13403 3.96771 9.13403 4.08815V5.58583H10.0356Z" fill="black"/>
<path d="M13.519 6.86793V5.56671C13.519 5.44623 13.4204 5.34766 13.2999 5.34766H8.70014C8.57957 5.34766 8.48096 5.44623 8.48096 5.56671V6.86793H13.519Z" fill="#C5CCD3"/>
<path opacity="0.1" d="M9.86034 6.86793V5.56671C9.86034 5.44623 9.95895 5.34766 10.0795 5.34766H8.70014C8.57957 5.34766 8.48096 5.44623 8.48096 5.56671V6.86793H9.86034Z" fill="black"/>
<path d="M14.2654 20.7925C14.2654 20.913 14.1668 21.0115 14.0463 21.0115H7.95368C7.83311 21.0115 7.7345 20.913 7.7345 20.7925V6.87184C7.7345 6.7514 7.83311 6.65283 7.95368 6.65283H14.0463C14.1668 6.65283 14.2654 6.7514 14.2654 6.87184V20.7925Z" fill="#E6E9ED"/>
<path opacity="0.1" d="M8.63323 20.7925V6.87184C8.63323 6.7514 8.73184 6.65283 8.85241 6.65283H7.95368C7.83311 6.65283 7.7345 6.7514 7.7345 6.87184V20.7925C7.7345 20.913 7.83311 21.0115 7.95368 21.0115H8.85241C8.73184 21.0115 8.63323 20.913 8.63323 20.7925Z" fill="black"/>
<path d="M3.27942 20.0642C4.21679 20.0642 4.97668 19.3048 4.97668 18.368C4.97668 17.4313 4.21679 16.6719 3.27942 16.6719C2.34205 16.6719 1.58215 17.4313 1.58215 18.368C1.58215 19.3048 2.34205 20.0642 3.27942 20.0642Z" fill="#89C947"/>
<path d="M3.27942 19.8088C3.16916 19.8088 3.06152 19.7979 2.95715 19.7778V21.4846H3.60168V19.7778C3.49731 19.7979 3.38963 19.8088 3.27942 19.8088Z" fill="#775436"/>
<path opacity="0.1" d="M2.58827 18.3675C2.58827 17.6058 3.09074 16.9614 3.7825 16.7472C3.62351 16.6979 3.4546 16.6714 3.27942 16.6714C2.34201 16.6714 1.58215 17.4308 1.58215 18.3675C1.58215 19.3043 2.34201 20.0637 3.27942 20.0637C3.4546 20.0637 3.62351 20.0371 3.7825 19.9879C3.09074 19.7736 2.58827 19.1292 2.58827 18.3675Z" fill="black"/>
<path d="M18.6505 19.8088C18.5403 19.8088 18.4326 19.7979 18.3282 19.7778V21.4846H18.9728V19.7778C18.8684 19.7979 18.7607 19.8088 18.6505 19.8088Z" fill="#775436"/>
<path d="M18.6506 20.0642C19.588 20.0642 20.3479 19.3048 20.3479 18.368C20.3479 17.4313 19.588 16.6719 18.6506 16.6719C17.7133 16.6719 16.9534 17.4313 16.9534 18.368C16.9534 19.3048 17.7133 20.0642 18.6506 20.0642Z" fill="#89C947"/>
<path opacity="0.1" d="M17.976 18.3676C17.976 17.609 18.4745 16.9668 19.162 16.7499C19.0006 16.699 18.8289 16.6714 18.6506 16.6714C17.7132 16.6714 16.9534 17.4308 16.9534 18.3675C16.9534 19.3043 17.7132 20.0637 18.6506 20.0637C18.8289 20.0637 19.0006 20.0361 19.162 19.9852C18.4745 19.7684 17.976 19.1262 17.976 18.3676Z" fill="black"/>
<path d="M8.66748 17.5908C8.4895 17.5908 8.34521 17.7351 8.34521 17.9131V18.3677C8.34521 18.5456 8.4895 18.6899 8.66748 18.6899C8.84546 18.6899 8.98975 18.5456 8.98975 18.3677V17.9131C8.98975 17.7351 8.84546 17.5908 8.66748 17.5908Z" fill="#9EA7AF"/>
<path d="M13.3324 17.5908C13.1544 17.5908 13.0101 17.7351 13.0101 17.9131V18.3677C13.0101 18.5456 13.1544 18.6899 13.3324 18.6899C13.5104 18.6899 13.6547 18.5456 13.6547 18.3677V17.9131C13.6547 17.7351 13.5104 17.5908 13.3324 17.5908Z" fill="#9EA7AF"/>
<path d="M8.66748 7.35205C8.4895 7.35205 8.34521 7.49634 8.34521 7.67432V8.12884C8.34521 8.30682 8.4895 8.45111 8.66748 8.45111C8.84546 8.45111 8.98975 8.30682 8.98975 8.12884V7.67432C8.98975 7.49634 8.84546 7.35205 8.66748 7.35205Z" fill="#9EA7AF"/>
<path d="M9.60046 7.35205C9.42249 7.35205 9.2782 7.49634 9.2782 7.67432V8.12884C9.2782 8.30682 9.42249 8.45111 9.60046 8.45111C9.77844 8.45111 9.92273 8.30682 9.92273 8.12884V7.67432C9.92273 7.49634 9.77844 7.35205 9.60046 7.35205Z" fill="#9EA7AF"/>
<path d="M10.5334 7.35205C10.3555 7.35205 10.2112 7.49634 10.2112 7.67432V8.12884C10.2112 8.30682 10.3555 8.45111 10.5334 8.45111C10.7114 8.45111 10.8557 8.30682 10.8557 8.12884V7.67432C10.8557 7.49634 10.7114 7.35205 10.5334 7.35205Z" fill="#9EA7AF"/>
<path d="M11.4664 7.35205C11.2885 7.35205 11.1442 7.49634 11.1442 7.67432V8.12884C11.1442 8.30682 11.2885 8.45111 11.4664 8.45111C11.6444 8.45111 11.7887 8.30682 11.7887 8.12884V7.67432C11.7887 7.49634 11.6444 7.35205 11.4664 7.35205Z" fill="#9EA7AF"/>
<path d="M12.3994 7.35205C12.2214 7.35205 12.0771 7.49634 12.0771 7.67432V8.12884C12.0771 8.30682 12.2214 8.45111 12.3994 8.45111C12.5774 8.45111 12.7217 8.30682 12.7217 8.12884V7.67432C12.7217 7.49634 12.5774 7.35205 12.3994 7.35205Z" fill="#9EA7AF"/>
<path d="M13.3324 7.35205C13.1544 7.35205 13.0101 7.49634 13.0101 7.67432V8.12884C13.0101 8.30682 13.1544 8.45111 13.3324 8.45111C13.5104 8.45111 13.6547 8.30682 13.6547 8.12884V7.67432C13.6547 7.49634 13.5104 7.35205 13.3324 7.35205Z" fill="#9EA7AF"/>
<path d="M8.66748 8.81494C8.4895 8.81494 8.34521 8.95923 8.34521 9.13721V9.59173C8.34521 9.76971 8.4895 9.914 8.66748 9.914C8.84546 9.914 8.98975 9.76971 8.98975 9.59173V9.13721C8.98975 8.95923 8.84546 8.81494 8.66748 8.81494Z" fill="#9EA7AF"/>
<path d="M9.60046 8.81494C9.42249 8.81494 9.2782 8.95923 9.2782 9.13721V9.59173C9.2782 9.76971 9.42249 9.914 9.60046 9.914C9.77844 9.914 9.92273 9.76971 9.92273 9.59173V9.13721C9.92273 8.95923 9.77844 8.81494 9.60046 8.81494Z" fill="#9EA7AF"/>
<path d="M10.5334 8.81494C10.3555 8.81494 10.2112 8.95923 10.2112 9.13721V9.59173C10.2112 9.76971 10.3555 9.914 10.5334 9.914C10.7114 9.914 10.8557 9.76971 10.8557 9.59173V9.13721C10.8557 8.95923 10.7114 8.81494 10.5334 8.81494Z" fill="#9EA7AF"/>
<path d="M11.4664 8.81494C11.2885 8.81494 11.1442 8.95923 11.1442 9.13721V9.59173C11.1442 9.76971 11.2885 9.914 11.4664 9.914C11.6444 9.914 11.7887 9.76971 11.7887 9.59173V9.13721C11.7887 8.95923 11.6444 8.81494 11.4664 8.81494Z" fill="#9EA7AF"/>
<path d="M12.3994 8.81494C12.2214 8.81494 12.0771 8.95923 12.0771 9.13721V9.59173C12.0771 9.76971 12.2214 9.914 12.3994 9.914C12.5774 9.914 12.7217 9.76971 12.7217 9.59173V9.13721C12.7217 8.95923 12.5774 8.81494 12.3994 8.81494Z" fill="#9EA7AF"/>
<path d="M13.3324 8.81494C13.1544 8.81494 13.0101 8.95923 13.0101 9.13721V9.59173C13.0101 9.76971 13.1544 9.914 13.3324 9.914C13.5104 9.914 13.6547 9.76971 13.6547 9.59173V9.13721C13.6547 8.95923 13.5104 8.81494 13.3324 8.81494Z" fill="#9EA7AF"/>
<path d="M8.66748 10.2773C8.4895 10.2773 8.34521 10.4216 8.34521 10.5996V11.0541C8.34521 11.2321 8.4895 11.3764 8.66748 11.3764C8.84546 11.3764 8.98975 11.2321 8.98975 11.0541V10.5996C8.98975 10.4216 8.84546 10.2773 8.66748 10.2773Z" fill="#9EA7AF"/>
<path d="M9.60046 10.2773C9.42249 10.2773 9.2782 10.4216 9.2782 10.5996V11.0541C9.2782 11.2321 9.42249 11.3764 9.60046 11.3764C9.77844 11.3764 9.92273 11.2321 9.92273 11.0541V10.5996C9.92273 10.4216 9.77844 10.2773 9.60046 10.2773Z" fill="#9EA7AF"/>
<path d="M10.5334 10.2773C10.3555 10.2773 10.2112 10.4216 10.2112 10.5996V11.0541C10.2112 11.2321 10.3555 11.3764 10.5334 11.3764C10.7114 11.3764 10.8557 11.2321 10.8557 11.0541V10.5996C10.8557 10.4216 10.7114 10.2773 10.5334 10.2773Z" fill="#9EA7AF"/>
<path d="M11.4664 10.2773C11.2885 10.2773 11.1442 10.4216 11.1442 10.5996V11.0541C11.1442 11.2321 11.2885 11.3764 11.4664 11.3764C11.6444 11.3764 11.7887 11.2321 11.7887 11.0541V10.5996C11.7887 10.4216 11.6444 10.2773 11.4664 10.2773Z" fill="#9EA7AF"/>
<path d="M12.3994 10.2773C12.2214 10.2773 12.0771 10.4216 12.0771 10.5996V11.0541C12.0771 11.2321 12.2214 11.3764 12.3994 11.3764C12.5774 11.3764 12.7217 11.2321 12.7217 11.0541V10.5996C12.7217 10.4216 12.5774 10.2773 12.3994 10.2773Z" fill="#9EA7AF"/>
<path d="M13.3324 10.2773C13.1544 10.2773 13.0101 10.4216 13.0101 10.5996V11.0541C13.0101 11.2321 13.1544 11.3764 13.3324 11.3764C13.5104 11.3764 13.6547 11.2321 13.6547 11.0541V10.5996C13.6547 10.4216 13.5104 10.2773 13.3324 10.2773Z" fill="#9EA7AF"/>
<path d="M8.66748 11.7402C8.4895 11.7402 8.34521 11.8845 8.34521 12.0625V12.5171C8.34521 12.695 8.4895 12.8393 8.66748 12.8393C8.84546 12.8393 8.98975 12.695 8.98975 12.5171V12.0625C8.98975 11.8845 8.84546 11.7402 8.66748 11.7402Z" fill="#9EA7AF"/>
<path d="M9.60046 11.7402C9.42249 11.7402 9.2782 11.8845 9.2782 12.0625V12.5171C9.2782 12.695 9.42249 12.8393 9.60046 12.8393C9.77844 12.8393 9.92273 12.695 9.92273 12.5171V12.0625C9.92273 11.8845 9.77844 11.7402 9.60046 11.7402Z" fill="#9EA7AF"/>
<path d="M10.5334 11.7402C10.3555 11.7402 10.2112 11.8845 10.2112 12.0625V12.5171C10.2112 12.695 10.3555 12.8393 10.5334 12.8393C10.7114 12.8393 10.8557 12.695 10.8557 12.5171V12.0625C10.8557 11.8845 10.7114 11.7402 10.5334 11.7402Z" fill="#9EA7AF"/>
<path d="M11.4664 11.7402C11.2885 11.7402 11.1442 11.8845 11.1442 12.0625V12.5171C11.1442 12.695 11.2885 12.8393 11.4664 12.8393C11.6444 12.8393 11.7887 12.695 11.7887 12.5171V12.0625C11.7887 11.8845 11.6444 11.7402 11.4664 11.7402Z" fill="#9EA7AF"/>
<path d="M12.3994 11.7402C12.2214 11.7402 12.0771 11.8845 12.0771 12.0625V12.5171C12.0771 12.695 12.2214 12.8393 12.3994 12.8393C12.5774 12.8393 12.7217 12.695 12.7217 12.5171V12.0625C12.7217 11.8845 12.5774 11.7402 12.3994 11.7402Z" fill="#9EA7AF"/>
<path d="M13.3324 11.7402C13.1544 11.7402 13.0101 11.8845 13.0101 12.0625V12.5171C13.0101 12.695 13.1544 12.8393 13.3324 12.8393C13.5104 12.8393 13.6547 12.695 13.6547 12.5171V12.0625C13.6547 11.8845 13.5104 11.7402 13.3324 11.7402Z" fill="#9EA7AF"/>
<path d="M8.66748 13.2026C8.4895 13.2026 8.34521 13.3469 8.34521 13.5249V13.9794C8.34521 14.1574 8.4895 14.3017 8.66748 14.3017C8.84546 14.3017 8.98975 14.1574 8.98975 13.9794V13.5249C8.98975 13.3469 8.84546 13.2026 8.66748 13.2026Z" fill="#9EA7AF"/>
<path d="M9.60046 13.2026C9.42249 13.2026 9.2782 13.3469 9.2782 13.5249V13.9794C9.2782 14.1574 9.42249 14.3017 9.60046 14.3017C9.77844 14.3017 9.92273 14.1574 9.92273 13.9794V13.5249C9.92273 13.3469 9.77844 13.2026 9.60046 13.2026Z" fill="#9EA7AF"/>
<path d="M10.5334 13.2026C10.3555 13.2026 10.2112 13.3469 10.2112 13.5249V13.9794C10.2112 14.1574 10.3555 14.3017 10.5334 14.3017C10.7114 14.3017 10.8557 14.1574 10.8557 13.9794V13.5249C10.8557 13.3469 10.7114 13.2026 10.5334 13.2026Z" fill="#9EA7AF"/>
<path d="M11.4664 13.2026C11.2885 13.2026 11.1442 13.3469 11.1442 13.5249V13.9794C11.1442 14.1574 11.2885 14.3017 11.4664 14.3017C11.6444 14.3017 11.7887 14.1574 11.7887 13.9794V13.5249C11.7887 13.3469 11.6444 13.2026 11.4664 13.2026Z" fill="#9EA7AF"/>
<path d="M12.3994 13.2026C12.2214 13.2026 12.0771 13.3469 12.0771 13.5249V13.9794C12.0771 14.1574 12.2214 14.3017 12.3994 14.3017C12.5774 14.3017 12.7217 14.1574 12.7217 13.9794V13.5249C12.7217 13.3469 12.5774 13.2026 12.3994 13.2026Z" fill="#9EA7AF"/>
<path d="M13.3324 13.2026C13.1544 13.2026 13.0101 13.3469 13.0101 13.5249V13.9794C13.0101 14.1574 13.1544 14.3017 13.3324 14.3017C13.5104 14.3017 13.6547 14.1574 13.6547 13.9794V13.5249C13.6547 13.3469 13.5104 13.2026 13.3324 13.2026Z" fill="#9EA7AF"/>
<path d="M8.66748 14.6655C8.4895 14.6655 8.34521 14.8098 8.34521 14.9878V15.4424C8.34521 15.6203 8.4895 15.7646 8.66748 15.7646C8.84546 15.7646 8.98975 15.6203 8.98975 15.4424V14.9878C8.98975 14.8098 8.84546 14.6655 8.66748 14.6655Z" fill="#9EA7AF"/>
<path d="M9.60046 14.6655C9.42249 14.6655 9.2782 14.8098 9.2782 14.9878V15.4424C9.2782 15.6203 9.42249 15.7646 9.60046 15.7646C9.77844 15.7646 9.92273 15.6203 9.92273 15.4424V14.9878C9.92273 14.8098 9.77844 14.6655 9.60046 14.6655Z" fill="#9EA7AF"/>
<path d="M10.5334 14.6655C10.3555 14.6655 10.2112 14.8098 10.2112 14.9878V15.4424C10.2112 15.6203 10.3555 15.7646 10.5334 15.7646C10.7114 15.7646 10.8557 15.6203 10.8557 15.4424V14.9878C10.8557 14.8098 10.7114 14.6655 10.5334 14.6655Z" fill="#9EA7AF"/>
<path d="M11.4664 14.6655C11.2885 14.6655 11.1442 14.8098 11.1442 14.9878V15.4424C11.1442 15.6203 11.2885 15.7646 11.4664 15.7646C11.6444 15.7646 11.7887 15.6203 11.7887 15.4424V14.9878C11.7887 14.8098 11.6444 14.6655 11.4664 14.6655Z" fill="#9EA7AF"/>
<path d="M12.3994 14.6655C12.2214 14.6655 12.0771 14.8098 12.0771 14.9878V15.4424C12.0771 15.6203 12.2214 15.7646 12.3994 15.7646C12.5774 15.7646 12.7217 15.6203 12.7217 15.4424V14.9878C12.7217 14.8098 12.5774 14.6655 12.3994 14.6655Z" fill="#9EA7AF"/>
<path d="M13.3324 14.6655C13.1544 14.6655 13.0101 14.8098 13.0101 14.9878V15.4424C13.0101 15.6203 13.1544 15.7646 13.3324 15.7646C13.5104 15.7646 13.6547 15.6203 13.6547 15.4424V14.9878C13.6547 14.8098 13.5104 14.6655 13.3324 14.6655Z" fill="#9EA7AF"/>
<path d="M8.66748 16.1279C8.4895 16.1279 8.34521 16.2722 8.34521 16.4502V16.9048C8.34521 17.0827 8.4895 17.227 8.66748 17.227C8.84546 17.227 8.98975 17.0827 8.98975 16.9048V16.4502C8.98975 16.2722 8.84546 16.1279 8.66748 16.1279Z" fill="#9EA7AF"/>
<path d="M13.3324 16.1279C13.1544 16.1279 13.0101 16.2722 13.0101 16.4502V16.9048C13.0101 17.0827 13.1544 17.227 13.3324 17.227C13.5104 17.227 13.6547 17.0827 13.6547 16.9048V16.4502C13.6547 16.2722 13.5104 16.1279 13.3324 16.1279Z" fill="#9EA7AF"/>
<path d="M12.5947 20.7036C12.5947 20.8387 12.4841 20.9491 12.349 20.9491H9.65093C9.51579 20.9491 9.40527 20.8387 9.40527 20.7036V16.4398C9.40527 16.3048 9.51579 16.1943 9.65093 16.1943H12.349C12.4841 16.1943 12.5947 16.3048 12.5947 16.4398V20.7036Z" fill="#7FDEE9"/>
<path d="M11.3223 16.1943H10.6777V20.5746H11.3223V16.1943Z" fill="#9EA7AF"/>
<path d="M15.1285 21.4585C15.1285 21.579 15.0299 21.6776 14.9093 21.6776H7.09064C6.97007 21.6776 6.87146 21.579 6.87146 21.4585V20.7932C6.87146 20.6727 6.97007 20.5742 7.09064 20.5742H14.9093C15.0299 20.5742 15.1285 20.6727 15.1285 20.7932V21.4585Z" fill="#C5CCD3"/>
<path opacity="0.1" d="M8.23843 21.4585V20.7932C8.23843 20.6727 8.33708 20.5742 8.45761 20.5742H7.09064C6.97007 20.5742 6.87146 20.6727 6.87146 20.7932V21.4585C6.87146 21.579 6.97007 21.6776 7.09064 21.6776H8.45761C8.33708 21.6776 8.23843 21.579 8.23843 21.4585Z" fill="black"/>
<path d="M20.5632 22H1.43689C1.25891 22 1.11462 21.8557 1.11462 21.6777C1.11462 21.4998 1.25891 21.3555 1.43689 21.3555H20.5632C20.7412 21.3555 20.8855 21.4998 20.8855 21.6777C20.8855 21.8557 20.7412 22 20.5632 22Z" fill="#9EA7AF"/>
</svg>
