<svg width="24" height="24" viewBox="0 0 24 24" fill="none" xmlns="http://www.w3.org/2000/svg">
<mask id="mask0_6885_6499" style="mask-type:luminance" maskUnits="userSpaceOnUse" x="0" y="0" width="24" height="24">
<path d="M24 12C24 5.37258 18.6274 0 12 0C5.37258 0 0 5.37258 0 12C0 18.6274 5.37258 24 12 24C18.6274 24 24 18.6274 24 12Z" fill="white"/>
</mask>
<g mask="url(#mask0_6885_6499)">
<path fill-rule="evenodd" clip-rule="evenodd" d="M10.7074 2.29289C10.3168 1.90237 9.68366 1.90237 9.29314 2.29289C8.90261 2.68342 8.90261 3.31658 9.29314 3.70711L10.6048 5.01875C9.62439 5.04546 8.73761 5.09893 7.94513 5.16774C5.92078 5.3435 4.90861 5.43138 3.61924 6.72517C2.32988 8.01895 2.24898 8.98923 2.08718 10.9298C2.03307 11.5788 2 12.2729 2 13C2 13.7272 2.03307 14.4213 2.08719 15.0704C2.24899 17.0109 2.32989 17.9811 3.61924 19.2749C4.90858 20.5687 5.92071 20.6565 7.94497 20.8323C9.09787 20.9324 10.4504 21.0001 12.0004 21.0001C13.5498 21.0001 14.902 20.9325 16.0547 20.8324C18.0798 20.6566 19.0924 20.5687 20.3818 19.2747C21.6713 17.9807 21.7521 17.01 21.9137 15.0685C21.9677 14.42 22.0007 13.7265 22.0007 13C22.0007 12.2736 21.9677 11.5802 21.9137 10.9317C21.7521 8.99011 21.6713 8.01931 20.3818 6.7253C19.0924 5.43128 18.0797 5.3434 16.0545 5.16763C15.2622 5.09887 14.3757 5.04544 13.3957 5.01875L14.7074 3.70711C15.0979 3.31658 15.0979 2.68342 14.7074 2.29289C14.3168 1.90237 13.6837 1.90237 13.2931 2.29289L12.0002 3.58579L10.7074 2.29289ZM12.0004 7C10.5087 7 9.21399 7.06509 8.11812 7.16024C7.03954 7.25389 6.51647 7.30876 6.09566 7.43846C5.78352 7.53468 5.48334 7.68796 5.03587 8.13696C4.57812 8.59628 4.42957 8.89199 4.33977 9.18008C4.21713 9.57355 4.16672 10.059 4.08026 11.096C4.03033 11.6948 4 12.3333 4 13C4 13.6668 4.03034 14.3053 4.08027 14.9042C4.16673 15.9411 4.21714 16.4265 4.33978 16.82C4.42957 17.1081 4.57812 17.4038 5.03587 17.8631C5.48334 18.3121 5.78351 18.4654 6.09563 18.5616C6.51642 18.6913 7.03944 18.7462 8.11799 18.8398C9.21388 18.935 10.5087 19.0001 12.0004 19.0001C13.4916 19.0001 14.786 18.935 15.8817 18.8399C16.9607 18.7463 17.4841 18.6914 17.9051 18.5616C18.2175 18.4654 18.5177 18.312 18.9651 17.863C19.4228 17.4037 19.5714 17.1079 19.6612 16.8196C19.7839 16.4258 19.8343 15.94 19.9206 14.9026C19.9704 14.3041 20.0007 13.6662 20.0007 13C20.0007 12.3339 19.9704 11.696 19.9206 11.0976C19.8343 10.0602 19.7839 9.57426 19.6612 9.18048C19.5714 8.89213 19.4228 8.59634 18.9651 8.13702C18.5177 7.68801 18.2175 7.53469 17.9051 7.43843C17.484 7.30867 16.9606 7.25379 15.8815 7.16014C14.7859 7.06505 13.4915 7 12.0004 7Z" fill="#3D4449"/>
</g>
</svg>
