<svg width="24" height="24" viewBox="0 0 24 24" fill="none" xmlns="http://www.w3.org/2000/svg">
<g clip-path="url(#clip0_6885_6493)">
<path d="M15.3123 10.174L13.2113 12.275C12.8441 12.099 12.4331 12.0001 11.9994 12.0001C10.4485 12.0001 9.18677 13.2619 9.18677 14.8128C9.18677 16.3637 10.4485 17.6254 11.9994 17.6254C13.5503 17.6254 14.8121 16.3637 14.8121 14.8128C14.8121 14.3791 14.7132 13.9681 14.5372 13.6009L16.6382 11.4999C17.0043 11.1338 17.0043 10.5401 16.6382 10.174C16.272 9.80787 15.6784 9.80787 15.3123 10.174ZM11.9994 15.7503C11.4824 15.7503 11.0619 15.3297 11.0619 14.8128C11.0619 14.2958 11.4824 13.8752 11.9994 13.8752C12.5164 13.8752 12.937 14.2958 12.937 14.8128C12.937 15.3297 12.5164 15.7503 11.9994 15.7503Z" fill="#3D4449"/>
<path d="M15.6567 3.19208C14.008 2.66406 12.2755 2.50303 10.5071 2.71365C5.15539 3.3509 1.02132 7.56987 0.168947 12.7483C-0.218963 15.1048 0.0640826 17.484 0.98752 19.6287C1.44439 20.6899 2.46974 21.3755 3.59972 21.3755H20.4108C21.5149 21.3755 22.5058 20.7577 22.9353 19.8016C23.6418 18.2286 24 16.5501 24 14.8127C24 9.49292 20.644 4.78952 15.6567 3.19208ZM20.4107 19.5004H3.59967C3.21945 19.5004 2.87012 19.2597 2.70975 18.8872C2.28068 17.8907 2.01563 16.8329 1.91804 15.7503H2.81143C3.32923 15.7503 3.74897 15.3305 3.74897 14.8127C3.74897 14.2949 3.32923 13.8752 2.81143 13.8752H1.91607C1.93993 13.6011 1.97401 13.3268 2.0191 13.0528C2.31392 11.2617 3.06634 9.62882 4.14471 8.281L4.70785 8.84414C5.07396 9.21029 5.66762 9.21025 6.03373 8.84414C6.39989 8.47802 6.39989 7.88437 6.03373 7.51826L5.44457 6.9291C6.91292 5.65872 8.73752 4.81273 10.7288 4.57562C10.841 4.56226 10.953 4.55087 11.0648 4.54107V5.43437C11.0648 5.95218 11.4845 6.37192 12.0023 6.37192C12.5201 6.37192 12.9398 5.95218 12.9398 5.43437V4.54187C15.0183 4.73041 16.9587 5.54739 18.5594 6.92971L17.9709 7.51826C17.6048 7.88441 17.6048 8.47802 17.9709 8.84414C18.3371 9.21029 18.9307 9.21029 19.2968 8.84414L19.8592 8.28175C21.1234 9.86714 21.901 11.8136 22.0828 13.8752H21.1933C20.6755 13.8752 20.2557 14.2949 20.2557 14.8127C20.2557 15.3305 20.6755 15.7503 21.1933 15.7503H22.0825C21.9809 16.8875 21.6942 17.9884 21.2248 19.0334C21.0993 19.3127 20.7722 19.5004 20.4107 19.5004Z" fill="#3D4449"/>
</g>
<defs>
<clipPath id="clip0_6885_6493">
<rect width="24" height="24" fill="white"/>
</clipPath>
</defs>
</svg>
