<svg width="17" height="17" viewBox="0 0 17 17" fill="none" xmlns="http://www.w3.org/2000/svg">
<mask id="path-1-inside-1_7133_8856" fill="white">
<path d="M8.3788 8.18898C9.50381 8.18898 10.4779 7.78548 11.274 6.98939C12.0698 6.19342 12.4734 5.21951 12.4734 4.09436C12.4734 2.9696 12.0699 1.99556 11.2738 1.19933C10.4777 0.403496 9.50368 0 8.3788 0C7.25365 0 6.27974 0.403496 5.48377 1.19946C4.68781 1.99543 4.28418 2.96947 4.28418 4.09436C4.28418 5.21951 4.68781 6.19355 5.48377 6.98952C6.28 7.78535 7.25404 8.18898 8.3788 8.18898ZM6.1883 1.90386C6.79906 1.29311 7.51552 0.996223 8.3788 0.996223C9.24195 0.996223 9.95854 1.29311 10.5694 1.90386C11.1802 2.51475 11.4772 3.23134 11.4772 4.09436C11.4772 4.95764 11.1802 5.6741 10.5694 6.28499C9.95854 6.89587 9.24195 7.19276 8.3788 7.19276C7.51578 7.19276 6.79932 6.89574 6.1883 6.28499C5.57742 5.67423 5.2804 4.95764 5.2804 4.09436C5.2804 3.23134 5.57742 2.51475 6.1883 1.90386Z"/>
</mask>
<path d="M11.274 6.98939L11.9811 7.69649L11.9811 7.69644L11.274 6.98939ZM11.2738 1.19933L11.981 0.492284L11.9808 0.492111L11.2738 1.19933ZM5.48377 6.98952L4.77667 7.69662L4.77684 7.6968L5.48377 6.98952ZM10.5694 1.90386L11.2766 1.19683L11.2765 1.19668L10.5694 1.90386ZM10.5694 6.28499L11.2765 6.99209L11.2766 6.99202L10.5694 6.28499ZM6.1883 6.28499L5.48127 6.99217L5.48134 6.99225L6.1883 6.28499ZM8.3788 9.18898C9.76916 9.18898 10.9975 8.68003 11.9811 7.69649L10.5668 6.28228C9.9582 6.89093 9.23847 7.18898 8.3788 7.18898V9.18898ZM11.9811 7.69644C12.9643 6.7131 13.4734 5.48492 13.4734 4.09436H11.4734C11.4734 4.95409 11.1753 5.67374 10.5668 6.28234L11.9811 7.69644ZM13.4734 4.09436C13.4734 2.70421 12.9644 1.4759 11.981 0.492284L10.5667 1.90638C11.1754 2.51522 11.4734 3.235 11.4734 4.09436H13.4734ZM11.9808 0.492111C10.9973 -0.491062 9.76903 -1 8.3788 -1V1C9.23834 1 9.95814 1.29805 10.5668 1.90656L11.9808 0.492111ZM8.3788 -1C6.98831 -1 5.76008 -0.491059 4.77667 0.492356L6.19088 1.90657C6.7994 1.29805 7.519 1 8.3788 1V-1ZM4.77667 0.492356C3.79331 1.47571 3.28418 2.70405 3.28418 4.09436H5.28418C5.28418 3.2349 5.5823 2.51515 6.19088 1.90657L4.77667 0.492356ZM3.28418 4.09436C3.28418 5.48489 3.79328 6.71324 4.77667 7.69662L6.19088 6.28241C5.58233 5.67386 5.28418 4.95412 5.28418 4.09436H3.28418ZM4.77684 7.6968C5.76036 8.67984 6.98859 9.18898 8.3788 9.18898V7.18898C7.5195 7.18898 6.79964 6.89087 6.19071 6.28224L4.77684 7.6968ZM6.89541 2.61097C7.31875 2.18762 7.78091 1.99622 8.3788 1.99622V-0.00377655C7.25012 -0.00377655 6.27936 0.398589 5.48119 1.19676L6.89541 2.61097ZM8.3788 1.99622C8.97656 1.99622 9.43889 2.18763 9.8624 2.61104L11.2765 1.19668C10.4782 0.398581 9.50734 -0.00377655 8.3788 -0.00377655V1.99622ZM9.86225 2.61089C10.2858 3.03449 10.4772 3.49686 10.4772 4.09436H12.4772C12.4772 2.96582 12.0746 1.995 11.2766 1.19683L9.86225 2.61089ZM10.4772 4.09436C10.4772 4.69212 10.2858 5.15436 9.86225 5.57796L11.2766 6.99202C12.0746 6.19385 12.4772 5.22316 12.4772 4.09436H10.4772ZM9.86232 5.57788C9.43884 6.00136 8.97655 6.19276 8.3788 6.19276V8.19276C9.50735 8.19276 10.4782 7.79038 11.2765 6.99209L9.86232 5.57788ZM8.3788 6.19276C7.78136 6.19276 7.31906 6.00135 6.89526 5.57773L5.48134 6.99225C6.27957 7.79013 7.25019 8.19276 8.3788 8.19276V6.19276ZM6.89533 5.57781C6.47187 5.15444 6.2804 4.69217 6.2804 4.09436H4.2804C4.2804 5.22311 4.68296 6.19403 5.48127 6.99217L6.89533 5.57781ZM6.2804 4.09436C6.2804 3.49687 6.47183 3.03454 6.89541 2.61097L5.48119 1.19676C4.683 1.99495 4.2804 2.9658 4.2804 4.09436H6.2804Z" fill="#3D4449" mask="url(#path-1-inside-1_7133_8856)"/>
<path d="M14.2658 10.1561C14.2658 10.1561 14.2658 10.156 14.2658 10.156L14.2625 10.1579C14.0923 9.85826 13.8962 9.60433 13.6823 9.39984L13.6823 9.39976L14.2658 10.1561ZM13.8312 10.4032C13.982 10.6684 14.1037 10.944 14.1926 11.222L13.8312 10.4032Z" stroke="#3D4449"/>
</svg>
