<svg width="24" height="25" viewBox="0 0 24 25" fill="none" xmlns="http://www.w3.org/2000/svg">
<g clip-path="url(#clip0_7203_7383)">
<path d="M12 24.5C18.6274 24.5 24 19.1274 24 12.5C24 5.87258 18.6274 0.5 12 0.5C5.37258 0.5 0 5.87258 0 12.5C0 19.1274 5.37258 24.5 12 24.5Z" fill="url(#paint0_linear_7203_7383)"/>
<path fill-rule="evenodd" clip-rule="evenodd" d="M5.43201 12.3734C8.93026 10.8493 11.263 9.84452 12.4301 9.35905C15.7627 7.97294 16.4551 7.73216 16.9065 7.72421C17.0058 7.72246 17.2277 7.74706 17.3715 7.86372C17.4929 7.96223 17.5263 8.0953 17.5423 8.1887C17.5583 8.28209 17.5782 8.49485 17.5623 8.6611C17.3817 10.5586 16.6003 15.1633 16.2028 17.2885C16.0346 18.1877 15.7034 18.4892 15.3827 18.5188C14.6858 18.5829 14.1567 18.0582 13.4817 17.6158C12.4256 16.9235 11.8289 16.4925 10.8037 15.8169C9.61896 15.0362 10.387 14.607 11.0622 13.9058C11.2389 13.7222 14.3093 10.9295 14.3687 10.6761C14.3762 10.6444 14.3831 10.5263 14.3129 10.464C14.2427 10.4016 14.1392 10.4229 14.0644 10.4399C13.9585 10.4639 12.2713 11.5791 9.00276 13.7855C8.52385 14.1143 8.09007 14.2745 7.70141 14.2662C7.27295 14.2569 6.44876 14.0239 5.83606 13.8247C5.08456 13.5804 4.48728 13.4513 4.53929 13.0364C4.56638 12.8203 4.86395 12.5993 5.43201 12.3734Z" fill="white"/>
</g>
<defs>
<linearGradient id="paint0_linear_7203_7383" x1="12" y1="0.5" x2="12" y2="24.322" gradientUnits="userSpaceOnUse">
<stop stop-color="#2AABEE"/>
<stop offset="1" stop-color="#229ED9"/>
</linearGradient>
<clipPath id="clip0_7203_7383">
<rect width="24" height="24" fill="white" transform="translate(0 0.5)"/>
</clipPath>
</defs>
</svg>
