<svg width="33" height="33" viewBox="0 0 33 33" fill="none" xmlns="http://www.w3.org/2000/svg">
<path fill-rule="evenodd" clip-rule="evenodd" d="M0.761134 28.566C-0.253465 29.5807 -0.253465 31.2258 0.761134 32.2404C1.77573 33.2551 3.42072 33.2551 4.43532 32.2404L16.5 20.1752L28.5647 32.2405C29.5793 33.2551 31.2243 33.2551 32.2389 32.2405C33.2535 31.2258 33.2535 29.5808 32.2389 28.5661L20.1742 16.5008L32.239 4.43535C33.2536 3.4207 33.2536 1.77563 32.239 0.760986C31.2245 -0.253662 29.5795 -0.253662 28.5649 0.760985L16.5 12.8265L4.43514 0.761062C3.42054 -0.253586 1.77555 -0.253586 0.76095 0.761062C-0.253649 1.77571 -0.25365 3.42078 0.760949 4.43543L12.8258 16.5008L0.761134 28.566Z" fill="white"/>
</svg>
