<svg width="67" height="66" viewBox="0 0 67 66" fill="none" xmlns="http://www.w3.org/2000/svg">
<g clip-path="url(#clip0_4997_1994)">
<path d="M53.958 66H12.708C5.87288 66 0.333008 60.4601 0.333008 53.625V12.375C0.333008 5.53988 5.87288 0 12.708 0H53.958C60.7931 0 66.333 5.53988 66.333 12.375V53.625C66.333 60.4601 60.7931 66 53.958 66Z" fill="#F6F6F6"/>
<g clip-path="url(#clip1_4997_1994)">
<path d="M33.5603 28.7826C34.2205 28.7826 34.8497 28.9206 35.4217 29.1689C35.4646 28.2355 35.7863 27.3724 36.3024 26.6579C35.939 26.5819 35.5642 26.5415 35.1804 26.5415H31.5441C31.1611 26.5415 30.7863 26.5815 30.4258 26.6566C30.9758 27.4198 31.3044 28.3511 31.3097 29.3596C31.9781 28.9921 32.7449 28.7826 33.5603 28.7826Z" fill="#8FC859"/>
<path d="M33.3617 26.2492C35.7285 26.2492 37.6471 24.3305 37.6471 21.9637C37.6471 19.5969 35.7285 17.6782 33.3617 17.6782C30.9948 17.6782 29.0762 19.5969 29.0762 21.9637C29.0762 24.3305 30.9948 26.2492 33.3617 26.2492Z" fill="#8FC859"/>
<path d="M40.0928 33.562C42.274 33.562 44.0411 31.7941 44.0411 29.6138C44.0411 27.4326 42.274 25.6655 40.0928 25.6655C37.9321 25.6655 36.1801 27.4012 36.1475 29.5541C37.3924 30.3348 38.2653 31.6552 38.4245 33.188C38.9316 33.4256 39.4955 33.562 40.0928 33.562Z" fill="#8FC859"/>
<path d="M26.6313 25.665C24.4497 25.665 22.6826 27.4326 22.6826 29.6133C22.6826 31.794 24.4497 33.5611 26.6313 33.5611C27.4038 33.5611 28.1219 33.3353 28.7311 32.9519C28.9251 31.6899 29.6016 30.5862 30.568 29.835C30.5721 29.7611 30.5791 29.688 30.5791 29.6133C30.5791 27.4326 28.8111 25.665 26.6313 25.665Z" fill="#8FC859"/>
<path d="M42.6572 25.5806C43.9021 26.3613 44.7751 27.6817 44.9339 29.2148C45.4406 29.4521 46.0049 29.5888 46.6022 29.5888C48.7833 29.5888 50.5504 27.8213 50.5504 25.6406C50.5504 23.4599 48.7833 21.6924 46.6022 21.6924C44.4419 21.692 42.6899 23.4281 42.6572 25.5806Z" fill="#8FC859"/>
<path d="M33.56 37.638C35.7407 37.638 37.5086 35.8701 37.5086 33.6894C37.5086 31.5086 35.7407 29.7407 33.56 29.7407C31.3792 29.7407 29.6113 31.5086 29.6113 33.6894C29.6113 35.8701 31.3792 37.638 33.56 37.638Z" fill="#8FC859"/>
<path d="M41.7677 33.8311H38.4426C38.4062 35.1613 37.8387 36.3592 36.9404 37.2203C39.418 37.9577 41.2312 40.2556 41.2312 42.97V44.2324C44.5139 44.1111 46.406 43.1819 46.5305 43.1182L46.7943 42.9842H46.8216V38.8866C46.8224 36.0987 44.5548 33.8311 41.7677 33.8311Z" fill="#8FC859"/>
<path d="M48.2772 29.8579H44.9529C44.917 31.1881 44.349 32.3861 43.4512 33.2472C45.9287 33.9846 47.7416 36.282 47.7416 38.9964V40.2589C51.0238 40.138 52.9163 39.2087 53.0408 39.1446L53.3046 39.0111H53.3328V34.9134C53.3328 32.126 51.0651 29.8579 48.2772 29.8579Z" fill="#8FC859"/>
<path d="M30.1776 37.2198C29.2839 36.3628 28.718 35.1714 28.6763 33.8498C28.5534 33.8408 28.4313 33.8306 28.3056 33.8306H24.9563C22.1685 33.8306 19.9004 36.0987 19.9004 38.8865V42.9846L19.9106 43.0479L20.1927 43.1369C22.3269 43.8036 24.232 44.1098 25.886 44.207V42.9695C25.8868 40.2555 27.6993 37.9576 30.1776 37.2198Z" fill="#8FC859"/>
<path d="M35.2355 37.9072H31.885C29.0972 37.9072 26.8291 40.1761 26.8291 42.9628V47.0608L26.8397 47.1249L27.1214 47.2131C29.7819 48.044 32.0933 48.3216 33.9951 48.3216C37.711 48.3216 39.8644 47.2621 39.9975 47.1947L40.2612 47.0608H40.289V42.9628C40.2902 40.1753 38.0226 37.9072 35.2355 37.9072Z" fill="#8FC859"/>
<path d="M20.0639 29.7147C20.6612 29.7147 21.2251 29.578 21.7322 29.3407C21.8914 27.8076 22.7639 26.4867 24.0088 25.7061C23.9762 23.5539 22.2242 21.8179 20.0639 21.8179C17.8823 21.8179 16.1152 23.5854 16.1152 25.7665C16.1152 27.9472 17.8823 29.7147 20.0639 29.7147Z" fill="#8FC859"/>
<path d="M23.2146 33.3735C22.3172 32.5124 21.7492 31.314 21.7133 29.9834H18.3885C15.6007 29.9838 13.333 32.2519 13.333 35.0393V39.1374H13.3612L13.6249 39.2709C13.7499 39.3338 15.6415 40.2643 18.9242 40.3848V39.1223C18.9242 36.4084 20.7366 34.1105 23.2146 33.3735Z" fill="#8FC859"/>
<path d="M24.682 25.2747C25.1557 25.0828 25.8783 24.8473 26.5684 24.8473C27.3715 24.8473 28.157 25.0539 28.8577 25.447C29.0136 25.2939 29.1566 25.1274 29.2864 24.9489C28.6209 24.0748 28.2575 23.0034 28.2575 21.9014C28.2575 21.1591 28.4233 20.4226 28.7393 19.7534C28.0199 19.1033 27.102 18.7485 26.1266 18.7485C24.3513 18.7485 22.8059 19.9502 22.3535 21.6425C23.6797 22.4142 24.5436 23.7632 24.682 25.2747Z" fill="#8FC859"/>
<path d="M37.4707 24.7253C37.6079 24.9433 37.7684 25.1487 37.9505 25.3398C38.5988 25.0164 39.3117 24.8465 40.0295 24.8465C40.7354 24.8465 41.412 25.027 41.8554 25.1781C41.9942 23.5396 42.9852 22.0934 44.4685 21.3605C43.9246 19.8069 42.4523 18.7466 40.7853 18.7466C39.7074 18.7466 38.6866 19.1892 37.9496 19.9682C38.2085 20.5855 38.3396 21.2343 38.3396 21.8994C38.3391 22.9181 38.0395 23.8891 37.4707 24.7253Z" fill="#8FC859"/>
</g>
</g>
<defs>
<clipPath id="clip0_4997_1994">
<rect x="0.333008" width="66" height="66" rx="18" fill="white"/>
</clipPath>
<clipPath id="clip1_4997_1994">
<rect width="40" height="40" fill="white" transform="translate(13.333 13)"/>
</clipPath>
</defs>
</svg>
