<svg width="66" height="66" viewBox="0 0 66 66" fill="none" xmlns="http://www.w3.org/2000/svg">
<g clip-path="url(#clip0_4997_1987)">
<path d="M53.625 66H12.375C5.53988 66 0 60.4601 0 53.625V12.375C0 5.53988 5.53988 0 12.375 0H53.625C60.4601 0 66 5.53988 66 12.375V53.625C66 60.4601 60.4601 66 53.625 66Z" fill="#F6F6F6"/>
<path d="M51.1918 33.0002C51.1918 37.6007 49.4818 41.809 46.6601 45.0108L42.7671 41.1218C42.2618 40.6165 41.9788 39.9292 41.9788 39.2097V36.5092C41.9788 35.5632 41.2107 34.7992 40.2647 34.7992H33.5419C33.0042 34.7992 32.4908 34.5849 32.1148 34.2049L31.5004 33.5864C31.1163 33.2104 30.9102 32.7011 30.9102 32.1634V27.8217C30.9102 27.1748 31.4357 26.6412 32.0906 26.6412H33.7804C34.4353 26.6412 34.9649 26.1116 34.9649 25.4567V23.3061C34.9649 22.344 35.737 21.5678 36.6951 21.5678H38.4739C39.6179 21.5678 40.5437 20.642 40.5437 19.502V16.4498L40.5477 16.4458C46.8259 19.312 51.1918 25.6468 51.1918 33.0002Z" fill="#8FC859"/>
<path d="M33.0043 42.9368V51.1918H33.0003C22.9544 51.1918 14.8086 43.0459 14.8086 33.0001C14.8086 32.0743 14.8773 31.1647 15.0107 30.2754L22.4087 37.4591C23.48 38.498 24.8666 39.1529 26.3502 39.3227L30.1664 39.7553C31.7834 39.9412 33.0043 41.3076 33.0043 42.9368Z" fill="#8FC859"/>
<path d="M33 52C22.5234 52 14 43.4766 14 33.0002C14 22.5234 22.5234 14 33 14C43.4766 14 52 22.5234 52 33.0002C52 43.4766 43.4766 52 33 52ZM33 15.617C23.415 15.617 15.617 23.4152 15.617 33.0002C15.617 42.5852 23.415 50.383 33 50.383C42.585 50.383 50.383 42.5852 50.383 33.0002C50.383 23.4152 42.585 15.617 33 15.617Z" fill="#8FC859"/>
</g>
<defs>
<clipPath id="clip0_4997_1987">
<rect width="66" height="66" rx="18" fill="white"/>
</clipPath>
</defs>
</svg>
