<svg width="67" height="66" viewBox="0 0 67 66" fill="none" xmlns="http://www.w3.org/2000/svg">
<g clip-path="url(#clip0_4997_1999)">
<path d="M54.292 66H13.042C6.20687 66 0.666992 60.4601 0.666992 53.625V12.375C0.666992 5.53988 6.20687 0 13.042 0H54.292C61.1271 0 66.667 5.53988 66.667 12.375V53.625C66.667 60.4601 61.1271 66 54.292 66Z" fill="#F6F6F6"/>
<path d="M24.7876 35.6294C24.6018 35.4433 24.3726 35.3063 24.1207 35.2308C23.8688 35.1553 23.6021 35.1436 23.3445 35.1969C23.1493 35.2353 22.9636 35.3121 22.7983 35.4228C22.6013 35.5521 22.4356 35.7236 22.3132 35.925C22.1908 36.1263 22.1148 36.3524 22.0906 36.5868C22.0665 36.8211 22.0949 37.058 22.1737 37.28C22.2526 37.502 22.3799 37.7037 22.5464 37.8704L26.167 41.4911C26.2842 41.6083 26.3501 41.7672 26.3501 41.933C26.3501 42.0988 26.2842 42.2577 26.167 42.3749C26.109 42.433 26.0401 42.479 25.9643 42.5104C25.8884 42.5419 25.8072 42.558 25.7251 42.558C25.643 42.558 25.5617 42.5419 25.4859 42.5105C25.4101 42.479 25.3412 42.433 25.2831 42.375L19.9484 37.0403C19.128 36.2198 18.667 35.1069 18.667 33.9466V20.5362C18.667 19.864 18.1515 19.2847 17.48 19.2515C17.3108 19.2432 17.1417 19.2693 16.9829 19.3282C16.8241 19.3872 16.6789 19.4778 16.5561 19.5945C16.4333 19.7112 16.3355 19.8517 16.2687 20.0073C16.2018 20.163 16.1672 20.3306 16.167 20.5V37.2862C16.165 38.0251 16.3096 38.7572 16.5924 39.4399C16.8752 40.1226 17.2906 40.7425 17.8145 41.2636L21.5017 44.9507C21.7928 45.2403 22.0236 45.5846 22.1807 45.9639C22.3378 46.3432 22.4181 46.7499 22.417 47.1605V50.5H29.292V42.4638C29.294 41.7248 29.1495 40.9928 28.8667 40.31C28.5839 39.6273 28.1685 39.0074 27.6445 38.4863L24.7876 35.6294Z" fill="#8FC859"/>
<path d="M49.854 19.2515C49.1826 19.2847 48.667 19.864 48.667 20.5362V33.9466C48.667 35.1069 48.2061 36.2198 47.3856 37.0403L42.0509 42.375C41.9929 42.433 41.924 42.479 41.8481 42.5105C41.7723 42.5419 41.691 42.558 41.609 42.558C41.5269 42.558 41.4456 42.5419 41.3698 42.5104C41.2939 42.479 41.225 42.433 41.167 42.3749C41.0498 42.2577 40.9839 42.0988 40.984 41.933C40.984 41.7672 41.0498 41.6083 41.167 41.4911L44.7876 37.8704C44.9738 37.6846 45.1109 37.4552 45.1863 37.2032C45.2618 36.9511 45.2733 36.6843 45.2199 36.4266C45.1813 36.2314 45.1044 36.0458 44.9936 35.8805C44.8642 35.6836 44.6927 35.518 44.4913 35.3958C44.29 35.2735 44.064 35.1976 43.8297 35.1735C43.5953 35.1495 43.3586 35.1779 43.1367 35.2568C42.9147 35.3357 42.7131 35.4629 42.5464 35.6294L39.6895 38.4863C39.1656 39.0074 38.7502 39.6273 38.4674 40.31C38.1846 40.9928 38.04 41.7248 38.042 42.4638V50.5H44.917V47.1605C44.9159 46.75 44.9962 46.3433 45.1533 45.964C45.3104 45.5847 45.5412 45.2403 45.8323 44.9508L49.5195 41.2636C50.0435 40.7425 50.4589 40.1226 50.7417 39.4399C51.0245 38.7572 51.169 38.0251 51.167 37.2862V20.5C51.1668 20.3306 51.1322 20.163 51.0654 20.0073C50.9985 19.8517 50.9007 19.7112 50.7779 19.5945C50.6552 19.4778 50.51 19.3872 50.3512 19.3282C50.1923 19.2693 50.0232 19.2432 49.854 19.2515Z" fill="#8FC859"/>
<path d="M43.6672 31.125C43.8329 31.1248 43.9918 31.0589 44.109 30.9417C44.2261 30.8246 44.292 30.6657 44.2922 30.5V28.0827C44.2919 27.9748 44.2638 27.8689 44.2107 27.775C44.1575 27.6812 44.0811 27.6026 43.9888 27.5468L41.0408 25.778L41.7281 23.7159C41.7706 23.5885 41.7923 23.4551 41.7922 23.3207V22.375C41.7922 22.0435 41.6605 21.7255 41.4261 21.4911C41.1917 21.2567 40.8738 21.125 40.5422 21.125C40.2107 21.125 39.8928 21.2567 39.6584 21.4911C39.4239 21.7255 39.2922 22.0435 39.2922 22.375V23.3207C39.2922 23.4551 39.3139 23.5885 39.3564 23.7159L40.0437 25.778L38.2217 26.8713C38.5083 27.21 38.6661 27.639 38.6672 28.0827V31.125H43.6672Z" fill="#8FC859"/>
<path d="M24.4203 24.1113C24.3352 23.8564 24.2919 23.5894 24.292 23.3207V22.375C24.292 21.712 24.5554 21.0761 25.0242 20.6072C25.4931 20.1384 26.129 19.875 26.792 19.875C27.455 19.875 28.0909 20.1384 28.5598 20.6072C29.0286 21.0761 29.292 21.712 29.292 22.375V23.3207C29.2921 23.5894 29.2488 23.8564 29.1637 24.1113L28.7934 25.222L30.2295 26.0836L31.6655 25.222L31.2953 24.1113C31.2102 23.8564 31.1669 23.5894 31.167 23.3207V22.375C31.167 21.712 31.4304 21.0761 31.8992 20.6072C32.3681 20.1384 33.004 19.875 33.667 19.875C34.33 19.875 34.9659 20.1384 35.4348 20.6072C35.9036 21.0761 36.167 21.712 36.167 22.375V23.3207C36.1671 23.5894 36.1238 23.8564 36.0387 24.1113L35.6684 25.222L37.1045 26.0836L38.5405 25.222L38.1703 24.1113C38.0852 23.8564 38.0419 23.5894 38.042 23.3207V22.375C38.042 21.712 38.3054 21.0761 38.7742 20.6072C39.2431 20.1384 39.879 19.875 40.542 19.875C41.205 19.875 41.8409 20.1384 42.3098 20.6072C42.7786 21.0761 43.042 21.712 43.042 22.375V23.3207C43.0421 23.5894 42.9988 23.8564 42.9137 24.1113L42.5434 25.222L44.292 26.2711V18.625H39.917V15.5H31.792V19.25H30.542V18H23.042V26.2711L24.7905 25.222L24.4203 24.1113ZM36.792 16.75H38.667V18H36.792V16.75ZM33.042 16.75H34.917V18H33.042V16.75Z" fill="#8FC859"/>
<path d="M23.667 31.125H28.667V28.0827C28.6682 27.639 28.826 27.21 29.1125 26.8712L27.2905 25.778L27.9779 23.7159C28.0204 23.5885 28.042 23.4551 28.042 23.3207V22.375C28.042 22.0435 27.9103 21.7255 27.6759 21.4911C27.4415 21.2567 27.1235 21.125 26.792 21.125C26.4605 21.125 26.1425 21.2567 25.9081 21.4911C25.6737 21.7255 25.542 22.0435 25.542 22.375V23.3207C25.542 23.4551 25.5636 23.5885 25.6061 23.7159L26.2934 25.778L23.3454 27.5468C23.2531 27.6026 23.1767 27.6812 23.1235 27.775C23.0704 27.8689 23.0423 27.9748 23.042 28.0827V30.5C23.0422 30.6657 23.1081 30.8246 23.2253 30.9417C23.3424 31.0589 23.5013 31.1248 23.667 31.125Z" fill="#8FC859"/>
<path d="M37.1135 27.5468L34.1655 25.778L34.8529 23.7159C34.8954 23.5885 34.917 23.4551 34.917 23.3207V22.375C34.917 22.0435 34.7853 21.7255 34.5509 21.4911C34.3165 21.2567 33.9985 21.125 33.667 21.125C33.3355 21.125 33.0175 21.2567 32.7831 21.4911C32.5487 21.7255 32.417 22.0435 32.417 22.375V23.3207C32.417 23.4551 32.4386 23.5885 32.4811 23.7159L33.1684 25.778L30.2204 27.5468C30.1281 27.6026 30.0517 27.6812 29.9985 27.775C29.9454 27.8689 29.9173 27.9748 29.917 28.0827V33C29.9172 33.1657 29.9831 33.3246 30.1003 33.4417C30.2174 33.5589 30.3763 33.6248 30.542 33.625H36.792C36.9577 33.6248 37.1166 33.5589 37.2337 33.4417C37.3509 33.3246 37.4168 33.1657 37.417 33V28.0827C37.4167 27.9748 37.3886 27.8689 37.3355 27.775C37.2823 27.6812 37.2059 27.6026 37.1135 27.5468Z" fill="#8FC859"/>
</g>
<defs>
<clipPath id="clip0_4997_1999">
<rect x="0.666992" width="66" height="66" rx="18" fill="white"/>
</clipPath>
</defs>
</svg>
