<svg width="30" height="30" viewBox="0 0 30 30" fill="none" xmlns="http://www.w3.org/2000/svg">
<path d="M29.7531 6.2545C29.6651 4.68983 29.0039 3.21238 27.8958 2.10424C26.7876 0.996102 25.3102 0.334913 23.7455 0.246914C17.9199 -0.0823047 12.0804 -0.0823047 6.25483 0.246914C4.69014 0.334962 3.21269 0.996159 2.10451 2.10428C0.996326 3.2124 0.335048 4.68982 0.246914 6.2545C-0.0823047 12.0802 -0.0823047 17.9199 0.246914 23.7456C0.335062 25.3102 0.996344 26.7877 2.10452 27.8958C3.2127 29.0039 4.69015 29.6651 6.25483 29.7531C12.0804 30.0832 17.9199 30.0832 23.7455 29.7531C25.3102 29.6651 26.7876 29.0039 27.8957 27.8958C29.0039 26.7877 29.6651 25.3102 29.7531 23.7456C30.0823 17.9199 30.0823 12.0802 29.7531 6.2545Z" fill="white"/>
<g clip-path="url(#clip0_5002_4129)">
<path d="M17.8511 16.4129L15.6202 14.7398V11.3316C15.6202 10.9889 15.3432 10.7119 15.0005 10.7119C14.6579 10.7119 14.3809 10.9889 14.3809 11.3316V15.0497C14.3809 15.2449 14.4726 15.4289 14.6287 15.5454L17.1074 17.4044C17.219 17.4881 17.3491 17.5284 17.4786 17.5284C17.6676 17.5284 17.8535 17.4435 17.975 17.2799C18.1808 17.0066 18.125 16.618 17.8511 16.4129Z" fill="#8FC859"/>
<path d="M15 7C10.5885 7 7 10.5885 7 15C7 19.4115 10.5885 23 15 23C19.4115 23 23 19.4115 23 15C23 10.5885 19.4115 7 15 7ZM15 21.7607C11.2727 21.7607 8.23934 18.7273 8.23934 15C8.23934 11.2727 11.2727 8.23934 15 8.23934C18.728 8.23934 21.7607 11.2727 21.7607 15C21.7607 18.7273 18.7273 21.7607 15 21.7607Z" fill="#8FC859"/>
</g>
<defs>
<clipPath id="clip0_5002_4129">
<rect width="16" height="16" fill="white" transform="translate(7 7)"/>
</clipPath>
</defs>
</svg>
