<svg width="38" height="38" viewBox="0 0 38 38" fill="none" xmlns="http://www.w3.org/2000/svg">
<rect width="38" height="38" rx="8" fill="#F7F8FA"/>
<path d="M19 8.5C16.8128 8.50258 14.7158 9.3726 13.1692 10.9192C11.6226 12.4658 10.7526 14.5628 10.75 16.75C10.7474 18.5374 11.3312 20.2763 12.412 21.7C12.412 21.7 12.637 21.9963 12.6738 22.039L19 29.5L25.3293 22.0353C25.3623 21.9955 25.588 21.7 25.588 21.7L25.5888 21.6978C26.669 20.2747 27.2526 18.5366 27.25 16.75C27.2474 14.5628 26.3774 12.4658 24.8308 10.9192C23.2842 9.3726 21.1873 8.50258 19 8.5ZM19 19.75C18.4067 19.75 17.8266 19.5741 17.3333 19.2444C16.84 18.9148 16.4554 18.4462 16.2284 17.8981C16.0013 17.3499 15.9419 16.7467 16.0577 16.1647C16.1734 15.5828 16.4591 15.0482 16.8787 14.6287C17.2982 14.2091 17.8328 13.9234 18.4147 13.8076C18.9967 13.6919 19.5999 13.7513 20.1481 13.9784C20.6962 14.2054 21.1648 14.5899 21.4944 15.0833C21.8241 15.5766 22 16.1567 22 16.75C21.999 17.5453 21.6826 18.3078 21.1202 18.8702C20.5578 19.4326 19.7954 19.749 19 19.75Z" fill="#8FC859"/>
</svg>
