<svg width="38" height="38" viewBox="0 0 38 38" fill="none" xmlns="http://www.w3.org/2000/svg">
<rect width="38" height="38" rx="8" fill="#F7F8FA"/>
<path d="M27.0002 17.999H29.0002C29.0002 12.869 25.1272 9 19.9902 9V11C24.0522 11 27.0002 13.943 27.0002 17.999Z" fill="#8FC859"/>
<path d="M20.0003 15.0002C22.1033 15.0002 23.0003 15.8972 23.0003 18.0002H25.0003C25.0003 14.7752 23.2253 13.0002 20.0003 13.0002V15.0002ZM23.4223 20.4432C23.2301 20.2686 22.9776 20.1754 22.7181 20.1835C22.4585 20.1915 22.2123 20.3001 22.0313 20.4862L19.6383 22.9472C19.0623 22.8372 17.9043 22.4762 16.7123 21.2872C15.5203 20.0942 15.1593 18.9332 15.0523 18.3612L17.5113 15.9672C17.6977 15.7864 17.8064 15.5401 17.8144 15.2804C17.8225 15.0208 17.7292 14.7683 17.5543 14.5762L13.8593 10.5132C13.6843 10.3206 13.4412 10.2037 13.1814 10.1875C12.9217 10.1713 12.6659 10.2569 12.4683 10.4262L10.2983 12.2872C10.1254 12.4608 10.0222 12.6917 10.0083 12.9362C9.99328 13.1862 9.70728 19.1082 14.2993 23.7022C18.3053 27.7072 23.3233 28.0002 24.7053 28.0002C24.9073 28.0002 25.0313 27.9942 25.0643 27.9922C25.3088 27.9786 25.5396 27.8749 25.7123 27.7012L27.5723 25.5302C27.7417 25.3328 27.8276 25.077 27.8115 24.8173C27.7954 24.5576 27.6788 24.3143 27.4863 24.1392L23.4223 20.4432Z" fill="#8FC859"/>
</svg>
