<svg width="13" height="13" viewBox="0 0 13 13" fill="none" xmlns="http://www.w3.org/2000/svg">
<path d="M12.7773 5.48438H12.7891C12.7969 5.49219 12.8027 5.5 12.8066 5.50781C12.8105 5.51562 12.8164 5.52344 12.8242 5.53125L12.7773 5.47266C12.8477 5.54297 12.9023 5.62305 12.9414 5.71289C12.9805 5.80273 13 5.89844 13 6C13 6.01562 12.998 6.03125 12.9941 6.04688C12.9902 6.0625 12.9883 6.07812 12.9883 6.09375L13 6C13 6.10156 12.9785 6.19727 12.9355 6.28711C12.8926 6.37695 12.8398 6.45703 12.7773 6.52734L7.52734 11.7891C7.45703 11.8516 7.37695 11.9023 7.28711 11.9414C7.19727 11.9805 7.10156 12 7 12C6.79688 12 6.62109 11.9277 6.47266 11.7832C6.32422 11.6387 6.25 11.4648 6.25 11.2617C6.25 11.1602 6.26953 11.0625 6.30859 10.9688C6.34766 10.875 6.40234 10.7969 6.47266 10.7344L10.4688 6.75H1.75C1.53906 6.75 1.36133 6.67773 1.2168 6.5332C1.07227 6.38867 1 6.21094 1 6C1 5.79688 1.07227 5.62305 1.2168 5.47852C1.36133 5.33398 1.53906 5.26172 1.75 5.26172H10.4688L6.47266 1.27734C6.40234 1.20703 6.34961 1.12695 6.31445 1.03711C6.2793 0.947266 6.26172 0.851562 6.26172 0.75C6.26172 0.664062 6.27539 0.582031 6.30273 0.503906C6.33008 0.425781 6.37109 0.355469 6.42578 0.292969L6.47266 0.222656C6.54297 0.152344 6.62305 0.0976562 6.71289 0.0585938C6.80273 0.0195312 6.89844 0 7 0C7.10156 0 7.19727 0.0195312 7.28711 0.0585938C7.37695 0.0976562 7.45703 0.152344 7.52734 0.222656L12.7773 5.47266V5.48438Z" fill="#0C151C"/>
</svg>
