<svg width="24" height="20" viewBox="0 0 24 20" fill="none" xmlns="http://www.w3.org/2000/svg">
<path fill-rule="evenodd" clip-rule="evenodd" d="M0 0.909091C0 0.407014 0.407014 0 0.909091 0H22.7273C23.2294 0 23.6364 0.407014 23.6364 0.909091C23.6364 1.41117 23.2294 1.81818 22.7273 1.81818H0.90909C0.407013 1.81818 0 1.41117 0 0.909091ZM0 10C0 9.49796 0.407014 9.09095 0.909091 9.09095H22.7273C23.2294 9.09095 23.6364 9.49796 23.6364 10C23.6364 10.5021 23.2294 10.9091 22.7273 10.9091H0.90909C0.407013 10.9091 0 10.5021 0 10ZM0.909091 18.1818C0.407014 18.1818 0 18.5888 0 19.0909C0 19.5929 0.407013 20 0.90909 20H22.7273C23.2294 20 23.6364 19.5929 23.6364 19.0909C23.6364 18.5888 23.2294 18.1818 22.7273 18.1818H0.909091Z" fill="#3D4449"/>
</svg>
