<svg width="66" height="66" viewBox="0 0 66 66" fill="none" xmlns="http://www.w3.org/2000/svg">
<path d="M65.4568 13.7599C65.2632 10.3176 63.8086 7.06723 61.3707 4.62933C58.9328 2.19143 55.6824 0.736808 52.2401 0.543211C39.4238 -0.18107 26.5769 -0.18107 13.7606 0.543211C10.3183 0.736917 7.06791 2.19155 4.62991 4.62941C2.19192 7.06727 0.737106 10.3176 0.543211 13.7599C-0.18107 26.5765 -0.18107 39.4237 0.543211 52.2402C0.737137 55.6825 2.19196 58.9328 4.62995 61.3707C7.06794 63.8085 10.3183 65.2632 13.7606 65.4569C26.5768 66.183 39.4239 66.183 52.2401 65.4569C55.6824 65.2633 58.9327 63.8087 61.3706 61.3708C63.8085 58.9329 65.2632 55.6825 65.4568 52.2402C66.1811 39.4237 66.1811 26.5765 65.4568 13.7599Z" fill="url(#paint0_linear_4976_1502)"/>
<path d="M44.7369 14.666L43.6816 16.5673C47.3175 18.582 50.314 21.5779 52.3296 25.2133L54.2307 24.158C52.0168 20.1678 48.7275 16.8791 44.7369 14.666Z" fill="url(#paint1_linear_4976_1502)"/>
<path d="M22.3183 16.5673L21.263 14.666C17.2725 16.8791 13.9833 20.1679 11.7695 24.158L13.6706 25.2133C15.6861 21.578 18.6825 18.5821 22.3183 16.5673Z" fill="url(#paint2_linear_4976_1502)"/>
<path d="M33.0002 37.7086C34.0002 37.7086 34.8109 36.8979 34.8109 35.8979C34.8109 34.8978 34.0002 34.0872 33.0002 34.0872C32.0001 34.0872 31.1895 34.8978 31.1895 35.8979C31.1895 36.8979 32.0001 37.7086 33.0002 37.7086Z" fill="url(#paint3_linear_4976_1502)"/>
<path d="M34.0869 17.4838V13.8074H37.3461V11.6345H28.6547V13.8074H31.914V17.4838C27.1181 17.7664 22.621 19.9067 19.3772 23.4504C16.1333 26.9941 14.3979 31.6623 14.5393 36.4645C14.6806 41.2666 16.6876 45.8247 20.1343 49.1714C23.581 52.5182 28.1962 54.3902 33.0004 54.3902C37.8047 54.3902 42.4198 52.5182 45.8665 49.1714C49.3133 45.8247 51.3203 41.2666 51.4616 36.4645C51.603 31.6623 49.8676 26.9941 46.6237 23.4504C43.3798 19.9067 38.8828 17.7664 34.0869 17.4838ZM44.5889 36.9844H36.8144C36.5521 37.9094 35.9642 38.7084 35.159 39.2339C34.3538 39.7594 33.3857 39.9759 32.4334 39.8436C31.481 39.7112 30.6087 39.2388 29.9774 38.5137C29.346 37.7885 28.9983 36.8594 28.9983 35.8979C28.9983 34.9365 29.346 34.0074 29.9774 33.2822C30.6087 32.5571 31.481 32.0847 32.4334 31.9523C33.3857 31.82 34.3538 32.0365 35.159 32.562C35.9642 33.0875 36.5521 33.8865 36.8144 34.8115H44.5889V36.9844Z" fill="url(#paint4_linear_4976_1502)"/>
<defs>
<linearGradient id="paint0_linear_4976_1502" x1="33" y1="0.422546" x2="33" y2="67.6243" gradientUnits="userSpaceOnUse">
<stop stop-color="#FFEEF1"/>
<stop offset="1" stop-color="#FFC6CF"/>
</linearGradient>
<linearGradient id="paint1_linear_4976_1502" x1="48.9559" y1="11.3346" x2="48.9559" y2="53.3154" gradientUnits="userSpaceOnUse">
<stop stop-color="#FD4685"/>
<stop offset="1" stop-color="#FF9D8C"/>
</linearGradient>
<linearGradient id="paint2_linear_4976_1502" x1="17.044" y1="11.3346" x2="17.044" y2="53.3154" gradientUnits="userSpaceOnUse">
<stop stop-color="#FD4685"/>
<stop offset="1" stop-color="#FF9D8C"/>
</linearGradient>
<linearGradient id="paint3_linear_4976_1502" x1="33.0002" y1="11.3346" x2="33.0002" y2="53.3154" gradientUnits="userSpaceOnUse">
<stop stop-color="#FD4685"/>
<stop offset="1" stop-color="#FF9D8C"/>
</linearGradient>
<linearGradient id="paint4_linear_4976_1502" x1="33.0004" y1="11.3347" x2="33.0004" y2="53.3155" gradientUnits="userSpaceOnUse">
<stop stop-color="#FD4685"/>
<stop offset="1" stop-color="#FF9D8C"/>
</linearGradient>
</defs>
</svg>
