<svg width="66" height="66" viewBox="0 0 66 66" fill="none" xmlns="http://www.w3.org/2000/svg">
<path d="M65.4568 13.7599C65.0522 6.62957 59.3704 0.947778 52.2401 0.54321C39.4732 -0.18107 26.526 -0.18107 13.7606 0.54321C6.63028 0.947793 0.948488 6.62957 0.54321 13.7599C-0.18107 26.5268 -0.18107 39.4733 0.54321 52.2401C0.948503 59.3704 6.63028 65.0522 13.7606 65.4568C26.5587 66.183 39.4428 66.1828 52.2401 65.4568C59.3704 65.0522 65.0522 59.3704 65.4568 52.2401C66.1811 39.4733 66.1811 26.5267 65.4568 13.7599Z" fill="url(#paint0_linear_4976_1494)"/>
<path d="M47.4853 11.6655H18.5141C15.5156 11.6655 13.082 14.0991 13.082 17.0976V21.8054H52.9174V17.0976C52.9174 14.0991 50.4839 11.6655 47.4853 11.6655ZM19.9627 18.184C19.3688 18.184 18.8763 17.6915 18.8763 17.0976C18.8763 16.5037 19.3688 16.0112 19.9627 16.0112C20.5566 16.0112 21.0491 16.5037 21.0491 17.0976C21.0491 17.6915 20.5566 18.184 19.9627 18.184ZM24.3084 18.184C23.7145 18.184 23.222 17.6915 23.222 17.0976C23.222 16.5037 23.7145 16.0112 24.3084 16.0112C24.9022 16.0112 25.3948 16.5037 25.3948 17.0976C25.3948 17.6915 24.9022 18.184 24.3084 18.184ZM28.6541 18.184C28.0602 18.184 27.5676 17.6915 27.5676 17.0976C27.5676 16.5037 28.0602 16.0112 28.6541 16.0112C29.2479 16.0112 29.7405 16.5037 29.7405 17.0976C29.7405 17.6915 29.2479 18.184 28.6541 18.184Z" fill="url(#paint1_linear_4976_1494)"/>
<path d="M52.9174 23.9783V46.0688C52.9174 49.0673 50.4839 51.5009 47.4853 51.5009H40.4019L39.6631 45.4894C42.0532 43.5048 43.5018 40.5208 43.5018 37.3775C43.5018 33.2201 41.0392 29.4393 37.2295 27.759C36.8094 27.5707 36.3604 27.4693 35.8969 27.4693C35.274 27.4693 34.6511 27.6576 34.1152 27.9907C33.6371 28.3095 33.2605 28.744 32.9997 29.2365C32.739 28.744 32.3624 28.3095 31.8698 27.9907C31.3484 27.6576 30.7255 27.4693 30.1026 27.4693C29.6391 27.4693 29.19 27.5707 28.7845 27.7445C24.9602 29.4393 22.4977 33.2201 22.4977 37.3775C22.4977 40.5208 23.9462 43.5048 26.3364 45.4894L25.5976 51.5009H18.5141C15.5156 51.5009 13.082 49.0673 13.082 46.0688V23.9783H52.9174Z" fill="url(#paint2_linear_4976_1494)"/>
<path d="M41.3293 37.3774C41.3293 34.0799 39.3701 31.0796 36.3372 29.7357C36.0048 29.5872 35.6157 29.6169 35.3045 29.8177C34.9961 30.0186 34.8108 30.3609 34.8108 30.7287V37.3774C34.8108 37.574 34.6453 37.7395 34.4487 37.7395H31.5516C31.3549 37.7395 31.1894 37.574 31.1894 37.3774V30.7287C31.1894 30.3609 31.0041 30.0186 30.6957 29.8177C30.3845 29.6169 29.9955 29.5872 29.6631 29.7357C26.6301 31.0796 24.6709 34.0799 24.6709 37.3774C24.6709 40.2689 26.2128 42.9764 28.6587 44.4773L27.5765 53.1772C27.5383 53.487 27.6345 53.7968 27.8396 54.0302C28.0462 54.2636 28.3432 54.398 28.6544 54.398H37.3458C37.657 54.398 37.9541 54.2636 38.1606 54.0302C38.3657 53.7968 38.4619 53.487 38.4237 53.1772L37.3416 44.4773C39.7874 42.9764 41.3293 40.2689 41.3293 37.3774Z" fill="url(#paint3_linear_4976_1494)"/>
<defs>
<linearGradient id="paint0_linear_4976_1494" x1="33" y1="0.669539" x2="33" y2="65.8678" gradientUnits="userSpaceOnUse">
<stop stop-color="#E8F5FF"/>
<stop offset="1" stop-color="#B4DFFF"/>
</linearGradient>
<linearGradient id="paint1_linear_4976_1494" x1="32.9997" y1="8.59168" x2="32.9997" y2="59.4883" gradientUnits="userSpaceOnUse">
<stop stop-color="#466AFF"/>
<stop offset="1" stop-color="#06B8FF"/>
</linearGradient>
<linearGradient id="paint2_linear_4976_1494" x1="32.9997" y1="8.59167" x2="32.9997" y2="59.4883" gradientUnits="userSpaceOnUse">
<stop stop-color="#466AFF"/>
<stop offset="1" stop-color="#06B8FF"/>
</linearGradient>
<linearGradient id="paint3_linear_4976_1494" x1="33.0001" y1="8.59162" x2="33.0001" y2="59.4882" gradientUnits="userSpaceOnUse">
<stop stop-color="#466AFF"/>
<stop offset="1" stop-color="#06B8FF"/>
</linearGradient>
</defs>
</svg>
