<svg width="66" height="66" viewBox="0 0 66 66" fill="none" xmlns="http://www.w3.org/2000/svg">
<path d="M65.4568 13.7599C65.0522 6.62957 59.3704 0.947778 52.2401 0.54321C39.4732 -0.18107 26.526 -0.18107 13.7606 0.54321C6.63028 0.947793 0.948488 6.62957 0.54321 13.7599C-0.18107 26.5268 -0.18107 39.4733 0.54321 52.2401C0.948503 59.3704 6.63028 65.0522 13.7606 65.4568C26.5585 66.183 39.4428 66.1828 52.2401 65.4568C59.3704 65.0522 65.0522 59.3704 65.4568 52.2401C66.1811 39.4733 66.1811 26.5267 65.4568 13.7599Z" fill="url(#paint0_linear_4976_1520)"/>
<path d="M53.3667 28.0784C52.0196 26.7313 49.8178 26.7313 48.4417 28.0785L39.9242 36.6105C39.9387 36.7119 39.9387 36.8277 39.9387 36.9437C39.9387 40.3622 37.056 43.2449 33.6519 43.2449H32.1309C31.5225 43.2449 31.0445 42.7524 31.0445 42.1584C31.0445 41.5501 31.5225 41.072 32.1309 41.072H33.6519C35.87 41.072 37.7659 39.1537 37.7659 36.9436C37.7658 34.6693 35.9262 32.8153 33.6519 32.8153H27.0175C25.1923 32.8153 23.4541 33.5396 22.1503 34.8432L20.1809 36.802C18.5791 35.7443 16.398 35.9218 14.9938 37.3291L12.8549 39.4686C11.2465 41.0763 11.2465 43.6927 12.8535 45.2997C12.8535 45.2997 20.7366 53.1983 20.7513 53.213C22.2782 54.7429 25.019 54.7664 26.578 53.2073L28.7325 51.0522C29.7993 49.9854 30.1451 48.5 29.7991 47.1415H38.4321C40.576 47.1415 42.5895 46.1855 43.9656 44.5051L53.5986 32.7284C54.1057 32.1108 54.3538 31.3262 54.3526 30.5412C54.3511 29.6355 54.0177 28.7294 53.3667 28.0784Z" fill="url(#paint1_linear_4976_1520)"/>
<path d="M34.4487 11.6655H31.5516C30.154 11.6655 29.0166 12.8029 29.0166 14.2005V25.789C29.0166 27.1866 30.154 28.324 31.5516 28.324H34.4487C35.8463 28.324 36.9837 27.1866 36.9837 25.789V14.2005C36.9837 12.8029 35.8463 11.6655 34.4487 11.6655Z" fill="url(#paint2_linear_4976_1520)"/>
<path d="M24.3091 17.4597H21.4119C20.0143 17.4597 18.877 18.5971 18.877 19.9947V25.7889C18.877 27.1866 20.0143 28.3239 21.4119 28.3239H24.3091C25.7067 28.3239 26.844 27.1866 26.844 25.7889V19.9947C26.844 18.5971 25.7067 17.4597 24.3091 17.4597Z" fill="url(#paint3_linear_4976_1520)"/>
<path d="M44.5893 16.0112H41.6922C40.2946 16.0112 39.1572 17.1486 39.1572 18.5462V25.789C39.1572 27.1866 40.2946 28.324 41.6922 28.324H44.5893C45.987 28.324 47.1243 27.1866 47.1243 25.789V18.5462C47.1243 17.1486 45.987 16.0112 44.5893 16.0112Z" fill="url(#paint4_linear_4976_1520)"/>
<defs>
<linearGradient id="paint0_linear_4976_1520" x1="33" y1="0.423284" x2="33" y2="67.6249" gradientUnits="userSpaceOnUse">
<stop stop-color="#FFEEF1"/>
<stop offset="1" stop-color="#FFC6CF"/>
</linearGradient>
<linearGradient id="paint1_linear_4976_1520" x1="33.0005" y1="11.3658" x2="33.0005" y2="53.3682" gradientUnits="userSpaceOnUse">
<stop stop-color="#FD4685"/>
<stop offset="1" stop-color="#FF9D8C"/>
</linearGradient>
<linearGradient id="paint2_linear_4976_1520" x1="33.0001" y1="11.3657" x2="33.0001" y2="53.3681" gradientUnits="userSpaceOnUse">
<stop stop-color="#FD4685"/>
<stop offset="1" stop-color="#FF9D8C"/>
</linearGradient>
<linearGradient id="paint3_linear_4976_1520" x1="22.8605" y1="11.3656" x2="22.8605" y2="53.3681" gradientUnits="userSpaceOnUse">
<stop stop-color="#FD4685"/>
<stop offset="1" stop-color="#FF9D8C"/>
</linearGradient>
<linearGradient id="paint4_linear_4976_1520" x1="43.1408" y1="11.3657" x2="43.1408" y2="53.3681" gradientUnits="userSpaceOnUse">
<stop stop-color="#FD4685"/>
<stop offset="1" stop-color="#FF9D8C"/>
</linearGradient>
</defs>
</svg>
