<svg width="38" height="47" viewBox="0 0 38 47" fill="none" xmlns="http://www.w3.org/2000/svg">
<path d="M25.847 0.363243C25.6271 0.136261 25.3255 0 25.013 0H6.30247C2.84989 0 0 2.78152 0 6.16438V40.8353C0 44.2185 2.84989 47 6.30247 47H31.6975C35.1501 47 38 44.2185 38 40.8353V13.3052C38 13.0101 37.8609 12.7264 37.6641 12.5106L25.847 0.363243ZM26.1829 4.00751L34.0959 12.1473H28.9519C27.4227 12.1473 26.1829 10.9439 26.1829 9.4454V4.00751ZM31.6975 44.7295H6.30247C4.13615 44.7295 2.31709 42.9699 2.31709 40.8353V6.16438C2.31709 4.04157 4.12444 2.27054 6.30247 2.27054H23.8658V9.4454C23.8658 12.204 26.1368 14.4178 28.9519 14.4178H35.6829V40.8353C35.6829 42.9699 33.8756 44.7295 31.6975 44.7295Z" fill="black"/>
<path d="M28.5347 36.8955H9.46519C8.8281 36.8955 8.30664 37.4061 8.30664 38.0308C8.30664 38.6551 8.8281 39.166 9.46519 39.166H28.5464C29.1835 39.166 29.705 38.6551 29.705 38.0308C29.705 37.4061 29.1835 36.8955 28.5347 36.8955Z" fill="black"/>
<path d="M13.0682 24.6809L17.8414 19.6514V32.0487C17.8414 32.673 18.3628 33.1839 18.9999 33.1839C19.6374 33.1839 20.1585 32.673 20.1585 32.0487V19.6514L24.9317 24.6809C25.1634 24.919 25.4649 25.0441 25.7774 25.0441C26.0555 25.0441 26.3453 24.9419 26.5652 24.7376C27.0289 24.3062 27.0637 23.5908 26.6234 23.1368L19.8343 15.9961C19.614 15.7691 19.3128 15.6328 18.9886 15.6328C18.664 15.6328 18.3628 15.7691 18.1429 15.9961L11.3538 23.1368C10.9135 23.5908 10.9483 24.3173 11.4116 24.7376C11.8983 25.1689 12.6279 25.1349 13.0682 24.6809Z" fill="black"/>
</svg>
